<svg width="27" height="27" viewBox="0 0 27 27" fill="none" xmlns="http://www.w3.org/2000/svg">
<rect width="27" height="27" rx="13.5" fill="#62C9CC"/>
<path d="M10.1395 18C10.1395 16.9453 10.3261 16.082 10.6995 15.41C11.0728 14.7287 11.6701 14.1593 12.4915 13.702L13.8915 12.932C14.6848 12.4933 15.0815 11.8913 15.0815 11.126C15.0815 10.706 14.9508 10.3653 14.6895 10.104C14.4281 9.84267 14.0921 9.712 13.6815 9.712C13.1495 9.712 12.7388 9.88467 12.4495 10.23C12.1601 10.5753 12.0155 11.07 12.0155 11.714H10.3495C10.3495 10.678 10.6481 9.852 11.2455 9.236C11.8521 8.62 12.6641 8.312 13.6815 8.312C14.6428 8.312 15.3988 8.55933 15.9495 9.054C16.5095 9.53933 16.7895 10.202 16.7895 11.042C16.7895 11.6207 16.6261 12.1667 16.2995 12.68C15.9728 13.1933 15.5155 13.618 14.9275 13.954L13.5555 14.738C13.0328 15.0367 12.6688 15.3073 12.4635 15.55C12.2675 15.7927 12.1275 16.1287 12.0435 16.558H16.7615V18H10.1395Z" fill="white"/>
</svg>
