<svg width="7" height="13" viewBox="0 0 7 13" fill="none" xmlns="http://www.w3.org/2000/svg">
<path opacity="0.7" d="M5.46529 6.03054L5.11173 5.67699L0.62295 1.18821C0.550234 1.11162 0.510055 1.00974 0.510974 0.904048C0.511902 0.797185 0.554766 0.694963 0.630333 0.619395C0.705898 0.54383 0.808119 0.500967 0.914983 0.500038C1.02068 0.499121 1.12255 0.539297 1.19913 0.612006L6.32952 5.74239C6.32954 5.74241 6.32956 5.74243 6.32958 5.74245C6.40595 5.81887 6.44885 5.9225 6.44885 6.03054C6.44885 6.13859 6.40595 6.24221 6.32958 6.31864L6.32952 6.31869M5.46529 6.03054L6.32952 6.31869M5.46529 6.03054L5.11173 6.3841M5.46529 6.03054L5.11173 6.3841M6.32952 6.31869L1.19552 11.4527C1.1955 11.4527 1.19549 11.4527 1.19547 11.4527C1.11904 11.5291 1.01542 11.572 0.907373 11.572C0.799351 11.572 0.69575 11.5291 0.61933 11.4528C0.619295 11.4528 0.619259 11.4527 0.619223 11.4527M6.32952 6.31869L0.619223 11.4527M0.619223 11.4527C0.542883 11.3763 0.5 11.2727 0.5 11.1646C0.5 11.0566 0.542903 10.953 0.619277 10.8766M0.619223 11.4527L0.619277 10.8766M0.619277 10.8766C0.619295 10.8765 0.619312 10.8765 0.61933 10.8765M0.619277 10.8766L0.61933 10.8765M0.61933 10.8765L5.11173 6.3841M0.61933 10.8765L5.11173 6.3841" stroke="white"/>
</svg>
