<svg width="5" height="5" viewBox="0 0 13 8" fill="none" xmlns="http://www.w3.org/2000/svg">
<path opacity="0.7" d="M6.47898 6.02693L6.83253 5.67338L11.3213 1.1846C11.3979 1.11188 11.4998 1.0717 11.6055 1.07262C11.7123 1.07355 11.8146 1.11641 11.8901 1.19198C11.9657 1.26754 12.0086 1.36977 12.0095 1.47663C12.0104 1.58232 11.9702 1.68419 11.8975 1.76078L6.76713 6.89117C6.76711 6.89119 6.76709 6.8912 6.76707 6.89122C6.69065 6.96759 6.58702 7.0105 6.47898 7.0105C6.37093 7.0105 6.26731 6.96759 6.19088 6.89122L6.19083 6.89117M6.47898 6.02693L6.19083 6.89117M6.47898 6.02693L6.12543 5.67338M6.47898 6.02693L6.12543 5.67338M6.19083 6.89117L1.05683 1.75717C1.05681 1.75715 1.05679 1.75713 1.05678 1.75711C0.980403 1.68069 0.9375 1.57707 0.9375 1.46902C0.9375 1.361 0.980383 1.2574 1.05672 1.18098C1.05676 1.18094 1.05679 1.1809 1.05683 1.18087M6.19083 6.89117L1.05683 1.18087M1.05683 1.18087C1.13325 1.10453 1.23685 1.06165 1.34487 1.06165C1.45292 1.06165 1.55654 1.10455 1.63297 1.18092M1.05683 1.18087L1.63297 1.18092M1.63297 1.18092C1.63299 1.18094 1.633 1.18096 1.63302 1.18098M1.63297 1.18092L1.63302 1.18098M1.63302 1.18098L6.12543 5.67338M1.63302 1.18098L6.12543 5.67338" stroke="white"/>
</svg>
