<svg width="27" height="27" viewBox="0 0 27 27" fill="none" xmlns="http://www.w3.org/2000/svg">
<rect width="27" height="27" rx="13.5" fill="#62C9CC"/>
<path d="M13.5121 18.168C12.4015 18.168 11.5335 17.874 10.9081 17.286C10.2921 16.698 9.98414 15.8767 9.98414 14.822H11.6221C11.6221 15.4567 11.7855 15.9467 12.1121 16.292C12.4388 16.6373 12.9055 16.81 13.5121 16.81C14.0068 16.81 14.4081 16.67 14.7161 16.39C15.0241 16.11 15.1781 15.7413 15.1781 15.284C15.1781 14.2387 14.5808 13.716 13.3861 13.716H12.7141V12.33H13.4001C14.4175 12.33 14.9261 11.8633 14.9261 10.93C14.9261 10.5473 14.7861 10.2393 14.5061 10.006C14.2355 9.76333 13.8855 9.642 13.4561 9.642C12.9428 9.642 12.5368 9.79133 12.2381 10.09C11.9488 10.3793 11.8041 10.7807 11.8041 11.294H10.2221C10.2221 10.3793 10.5115 9.656 11.0901 9.124C11.6781 8.58267 12.4668 8.312 13.4561 8.312C14.3895 8.312 15.1408 8.55467 15.7101 9.04C16.2795 9.516 16.5641 10.146 16.5641 10.93C16.5641 11.9567 16.0275 12.6427 14.9541 12.988C15.5141 13.0907 15.9621 13.3473 16.2981 13.758C16.6341 14.1687 16.8021 14.6727 16.8021 15.27C16.8021 16.1193 16.4941 16.8147 15.8781 17.356C15.2715 17.8973 14.4828 18.168 13.5121 18.168Z" fill="white"/>
</svg>
