<svg width="51" height="51" viewBox="0 0 51 51" fill="none" xmlns="http://www.w3.org/2000/svg">
<circle cx="25.4863" cy="25.5" r="25" fill="#62C9CC"/>
<g clip-path="url(#clip0_0_594)">
<path d="M24.291 14.0328C21.1457 14.3703 18.2957 15.875 16.2894 18.2656C14.8785 19.9438 14.0019 21.8469 13.6128 24.0781C13.5238 24.5891 13.5144 24.8375 13.5144 26C13.5144 27.1625 13.5238 27.4109 13.6128 27.9219C14.0535 30.4531 15.1128 32.5484 16.8613 34.3625C18.6566 36.2281 20.9207 37.4094 23.5644 37.8734C24.0753 37.9625 24.3238 37.9719 25.4863 37.9719C26.9535 37.9719 27.3941 37.925 28.5472 37.6297C32.6816 36.5609 36.0472 33.1953 37.116 29.0609C37.4113 27.9078 37.4582 27.4672 37.4582 26C37.4582 24.5328 37.4113 24.0922 37.116 22.9391C36.0472 18.8094 32.6816 15.4391 28.5472 14.3703C27.4832 14.0984 26.9816 14.0375 25.6738 14.0234C25.0175 14.0141 24.3941 14.0188 24.291 14.0328ZM31.9175 21.2938C32.2316 21.4531 32.5457 21.7766 32.6957 22.1C32.8035 22.325 32.8222 22.4328 32.8222 22.7656C32.8175 23.5016 33.1035 23.1688 28.6082 27.6781C25.4347 30.8563 24.5722 31.7 24.38 31.7938C23.9207 32.0188 23.3769 32.0234 22.9128 31.8078C22.7535 31.7328 22.1582 31.1656 20.5738 29.5906C18.7316 27.7578 18.4316 27.4391 18.305 27.1859C17.9535 26.4734 18.1597 25.6344 18.8066 25.1469C19.2613 24.8047 19.8519 24.7203 20.4003 24.9219C20.6628 25.0203 20.78 25.1281 22.1347 26.4734C22.9363 27.2703 23.6113 27.9219 23.6347 27.9219C23.6582 27.9219 25.1582 26.45 26.9628 24.6453C29.5269 22.0859 30.291 21.35 30.4691 21.2656C30.9097 21.0594 31.4769 21.0688 31.9175 21.2938Z" fill="white"/>
</g>
<defs>
<clipPath id="clip0_0_594">
<rect width="24" height="24" fill="white" transform="translate(13.4863 14)"/>
</clipPath>
</defs>
</svg>
