<svg width="51" height="60" viewBox="0 0 83 83" fill="none" xmlns="http://www.w3.org/2000/svg">
<path d="M26.8492 8.84058C23.6621 9.24097 20.9234 11.2429 19.434 14.2378C18.473 16.1597 18.457 16.3679 18.457 26.2175C18.457 31.1503 18.5051 35.3464 18.5531 35.5386C18.6492 35.907 18.6812 35.907 21.7562 35.907C24.3027 35.907 24.8633 35.8589 24.8633 35.6828C24.8633 35.5546 24.6871 35.4105 24.4789 35.3625C24.2707 35.3144 23.7422 34.946 23.3098 34.5457C22.1887 33.5527 21.7883 32.5597 21.6922 30.6218C21.6281 29.1164 21.6121 29.1003 20.9875 28.4117C20.0746 27.4027 19.8984 26.8742 19.8984 25.0324C19.8984 22.582 20.3949 21.7011 21.9004 21.4289C23.3898 21.1566 24.0145 20.3718 24.1586 18.5941C24.2707 17.2167 24.4309 16.7843 24.9754 16.5441C25.2316 16.432 27.0094 16.3679 30.2445 16.3679C36.4426 16.3679 36.1703 16.2558 36.3945 18.7382C36.4906 19.9875 36.5387 20.1156 37.0672 20.6281C37.4195 20.9964 37.884 21.2527 38.3164 21.3488C39.918 21.7171 40.3984 22.566 40.3984 25.0324C40.3984 26.8742 40.2223 27.4027 39.3094 28.4117C38.6848 29.1003 38.6687 29.1003 38.6047 30.6378C38.5246 32.4796 38.0441 33.6328 36.9391 34.5937C36.5227 34.9781 36.2344 35.3625 36.2344 35.5707C36.2344 35.907 36.2664 35.907 39.0691 35.875L41.9199 35.8269L42.048 34.866C42.1121 34.3375 42.1441 30.0773 42.1121 25.4167C42.048 16.0156 42.0801 16.2878 40.943 13.9816C39.8219 11.7234 37.3875 9.75347 34.857 9.08081C33.7199 8.77651 28.5949 8.61636 26.8492 8.84058Z" fill="white"/>
<path d="M25.2797 17.521C25.2316 17.6331 25.1836 18.1937 25.1355 18.7703C25.0555 19.8913 24.6711 20.8683 24.0305 21.4449C23.582 21.8613 22.3488 22.4378 21.8844 22.4538C21.1637 22.4538 21.0195 22.8863 21.0195 25.0324V27.0343L21.8043 27.8031L22.5891 28.5718L22.6691 30.2695C22.7973 33.2003 23.1977 33.7288 26.2566 35.0902C29.6199 36.5636 30.3566 36.5636 33.8641 35.0902C36.2824 34.0812 36.5387 33.905 37.0992 32.864C37.4996 32.1433 37.5637 31.7749 37.6598 30.2855L37.7559 28.5558L38.5566 27.739L39.3574 26.9222V25.0324C39.3574 23.3828 39.3094 23.0785 39.0531 22.7902C38.877 22.598 38.6367 22.4538 38.4926 22.4538C38.0922 22.4378 36.843 21.8292 36.4266 21.4449C35.7859 20.8523 35.4176 19.9394 35.3055 18.6421L35.1934 17.4089L30.2605 17.3609C26.4008 17.3288 25.3277 17.3609 25.2797 17.521Z" fill="white"/>
<path d="M64.7902 18.578C64.6941 18.6421 63.8293 20.4038 62.8844 22.5019C61.9395 24.5839 61.1227 26.2976 61.0586 26.2976C60.9945 26.2976 60.5301 25.3366 60.0176 24.1675C59.5211 23.0144 59.0246 21.9573 58.9445 21.8452C58.7363 21.605 57.9836 21.589 57.7273 21.8452C57.6152 21.9573 57.5352 22.1816 57.5352 22.3737C57.5352 22.5499 58.1598 24.1194 58.9285 25.8812C60.434 29.3085 60.7543 29.7409 61.427 29.3085C61.8434 29.0202 66.0234 19.8913 66.0234 19.2347C66.0234 19.0105 65.9434 18.7542 65.8313 18.6421C65.623 18.4339 65.0785 18.3859 64.7902 18.578Z" fill="white"/>
<path d="M55.4852 22.9664C55.341 23.1105 55.293 24.3757 55.293 27.691V32.2234L55.8375 32.832L56.382 33.4246L60.9625 33.4726C66.0074 33.5207 66.3277 33.4726 66.8723 32.5597C67.1125 32.1433 67.1445 31.5507 67.1445 27.6269C67.1445 22.9023 67.1285 22.7742 66.4078 22.7742C65.575 22.7742 65.543 22.9503 65.543 27.4988C65.543 31.1824 65.5109 31.7269 65.2867 31.807C65.1426 31.855 63.2848 31.9031 61.1547 31.9031C58.352 31.9031 57.2309 31.855 57.0867 31.7109C56.9426 31.5668 56.8945 30.3816 56.8945 27.4027C56.8945 23.8632 56.8625 23.2386 56.6383 23.0304C56.35 22.7261 55.7574 22.6941 55.4852 22.9664Z" fill="white"/>
<path d="M33.2715 36.3875C31.5898 37.0761 31.4297 37.1082 29.9883 37.1082C28.643 37.0921 28.3387 37.0441 27.2656 36.5796C26.609 36.2914 26.0164 36.0671 25.9523 36.0671C25.8723 36.0671 25.8242 36.7398 25.8242 37.5566C25.8242 39.2863 25.568 40.2152 24.8473 41.08C24.1586 41.9128 23.4859 42.2652 19.3379 43.9148C15.4781 45.4523 14.8055 45.8527 14.357 46.9097C14.1809 47.3261 14.1328 49.0878 14.1328 56.1667V64.8953H16.7754H19.418L19.45 59.482L19.498 54.0847H19.8984H20.2988L20.3469 59.482L20.3789 64.8953H30.5488H40.7188L40.7508 59.482L40.7988 54.0847H41.1992H41.5996L41.6477 59.482L41.6797 64.8953H44.1621C45.5234 64.8953 46.6445 64.8472 46.6605 64.7671C46.6605 64.7031 46.7246 60.9074 46.8047 56.3269C46.8848 50.6253 46.8848 47.7746 46.7727 47.2941C46.4363 45.9488 45.9078 45.5964 41.3273 43.7707C37.8359 42.3773 37.0992 42.025 36.5387 41.4804C35.5297 40.5035 35.2414 39.6707 35.1293 37.5085L35.0332 35.6507L33.2715 36.3875ZM24.575 43.5464C24.7031 43.7066 25.0074 44.171 25.2477 44.6035C26.1605 46.221 28.1465 47.2781 30.2285 47.2781C32.4227 47.2781 34.0082 46.3972 35.3055 44.4753C35.7059 43.8667 36.1223 43.3382 36.2023 43.3062C36.2824 43.2902 36.4426 43.3863 36.5707 43.5304C37.1152 44.1871 34.9371 46.8136 33.1434 47.6464C31.2535 48.5593 29.2035 48.5433 27.2977 47.6464C25.5359 46.8136 23.3418 44.1871 23.8863 43.5304C24.1586 43.2101 24.2707 43.2101 24.575 43.5464ZM42.2562 50.7214C42.3203 50.8496 42.2723 51.0738 42.1602 51.2019C42 51.3941 41.4555 51.4421 39.1973 51.4421C36.3145 51.4421 35.9301 51.3621 36.1703 50.7375C36.2504 50.5132 36.6348 50.4812 39.2133 50.4812C41.7117 50.4812 42.1922 50.5132 42.2562 50.7214Z" fill="white"/>
<path d="M51.9137 36.98C50.8246 38.0371 50.4883 38.4695 50.4883 38.7898C50.4883 39.1101 50.8246 39.5425 51.9137 40.5996C53.4512 42.105 53.9316 42.3132 54.3961 41.6406C54.7484 41.1441 54.7324 41.1121 53.9957 40.3113L53.323 39.5906H62.3078C70.8922 39.5906 71.2926 39.6066 71.6449 39.8949C72.0133 40.1832 72.0293 40.3113 72.0773 42.5054C72.1254 44.9078 72.2215 45.196 72.9262 45.196C73.5988 45.196 73.7109 44.8117 73.7109 42.4253C73.7109 39.8308 73.5027 39.1101 72.5738 38.4535L72.0293 38.0691L62.6922 37.989L53.3551 37.9089L53.8516 37.4285C54.6203 36.7078 54.7164 36.4355 54.4121 35.971C53.9477 35.2664 53.4672 35.4425 51.9137 36.98Z" fill="white"/>
<path d="M59.9856 43.0179C56.0137 43.9788 53.3071 48.1269 53.9958 52.1949C54.5403 55.3339 56.8946 57.9445 59.8575 58.7292C61.0747 59.0335 62.9645 59.0335 64.1817 58.7292C67.1446 57.9445 69.4989 55.3339 70.0434 52.1949C71.0204 46.4933 65.7032 41.6406 59.9856 43.0179ZM62.3399 45.132C62.3399 45.6605 62.3559 45.6765 62.9805 45.6765C63.8934 45.6765 64.5821 46.3171 64.6942 47.2941C64.7583 47.8066 64.7102 48.0628 64.534 48.207C64.1977 48.4792 63.7813 48.271 63.7813 47.8386C63.7813 47.6304 63.7173 47.2781 63.6212 47.0378C63.461 46.6374 63.445 46.6214 61.9876 46.6695L60.4981 46.7175V48.4792V50.241L62.1157 50.321C63.2208 50.3691 63.8294 50.4812 64.0215 50.6413C64.502 51.0417 64.7423 51.8425 64.7423 53.0437C64.7423 54.9015 64.1657 55.7663 62.9485 55.7663C62.3559 55.7663 62.3399 55.7824 62.3399 56.391C62.3399 57.1277 61.9876 57.512 61.6192 57.2078C61.4751 57.0956 61.379 56.7433 61.379 56.391C61.379 55.7984 61.3469 55.7663 60.8825 55.7663C59.9536 55.7663 58.9446 54.2929 59.4891 53.7484C59.8094 53.412 60.1938 53.6203 60.37 54.2128C60.5141 54.7253 60.5141 54.7253 61.6993 54.7734C63.6852 54.8535 63.6212 54.9015 63.6212 53.0597C63.6212 51.7624 63.5731 51.4581 63.3649 51.3781C63.2208 51.33 62.468 51.282 61.6833 51.282C60.4661 51.282 60.2098 51.2339 59.9376 50.9617C59.4411 50.4652 59.2969 49.9367 59.2969 48.5433C59.2969 46.6374 59.8415 45.6765 60.9305 45.6765C61.3309 45.6765 61.379 45.6285 61.379 45.116C61.379 44.7636 61.4751 44.5234 61.6512 44.4113C62.0516 44.187 62.3399 44.4913 62.3399 45.132Z" fill="white"/>
<path d="M50.8406 56.8234C50.5043 57.0476 50.4883 57.1757 50.4883 59.3859C50.4883 61.9804 50.6164 62.4929 51.4332 63.1816C52.3461 63.9503 52.6504 63.9664 62.0355 63.9023L70.7961 63.8542L70.1715 64.5269C69.8352 64.9113 69.5469 65.3117 69.5469 65.4558C69.5469 65.7761 70.1234 66.3367 70.4438 66.3367C70.8441 66.3367 73.7109 63.4539 73.7109 63.0535C73.7109 62.6531 70.8441 59.7703 70.4438 59.7703C70.1234 59.7703 69.5469 60.3308 69.5469 60.6511C69.5469 60.7792 69.8031 61.1796 70.1234 61.532L70.7 62.1726H61.7312H52.7465L52.4262 61.7562C52.1219 61.3718 52.0898 61.1156 52.0898 59.1937C52.0898 57.1757 52.0738 57.0476 51.7375 56.8234C51.5453 56.6792 51.3371 56.5671 51.2891 56.5671C51.241 56.5671 51.0328 56.6792 50.8406 56.8234Z" fill="white"/>
<path d="M10.0328 66.1445C9.56836 66.4488 9.48828 67.0414 9.48828 70.2285C9.48828 73.2234 9.52031 73.5437 9.79258 73.88L10.0969 74.2644H29.8762C49.0949 74.2644 49.6555 74.2484 49.9918 73.9601C50.3121 73.6718 50.3281 73.5117 50.3281 70.1964C50.3281 67.3136 50.2801 66.673 50.0719 66.3687L49.8316 66.0164H30.0203C19.1297 66.0164 10.1289 66.0804 10.0328 66.1445Z" fill="white"/>
</svg>
