<svg width="16" height="16" viewBox="0 0 16 16" fill="none" xmlns="http://www.w3.org/2000/svg">
<path d="M7.99398 1.3335C4.31398 1.3335 1.33398 4.32016 1.33398 8.00016C1.33398 11.6802 4.31398 14.6668 7.99398 14.6668C11.6807 14.6668 14.6673 11.6802 14.6673 8.00016C14.6673 4.32016 11.6807 1.3335 7.99398 1.3335ZM8.00065 13.3335C5.05398 13.3335 2.66732 10.9468 2.66732 8.00016C2.66732 5.0535 5.05398 2.66683 8.00065 2.66683C10.9473 2.66683 13.334 5.0535 13.334 8.00016C13.334 10.9468 10.9473 13.3335 8.00065 13.3335ZM8.33398 4.66683H7.33398V8.66683L10.834 10.7668L11.334 9.94683L8.33398 8.16683V4.66683Z" fill="white"/>
</svg>
