<svg width="50" height="51" viewBox="0 0 50 51" fill="none" xmlns="http://www.w3.org/2000/svg">
<rect y="0.5" width="50" height="50" rx="25" fill="#62C9CC"/>
<g clip-path="url(#clip0_0_614)">
<path d="M15.068 18.982L23.943 27.858C24.2056 28.1207 24.5562 28.2767 24.9272 28.2957C25.2981 28.3148 25.6629 28.1955 25.951 27.961L26.065 27.858L34.934 18.988C34.963 19.098 34.982 19.21 34.992 19.325L35 19.5V31.5C35.0002 32.0046 34.8096 32.4906 34.4665 32.8605C34.1234 33.2305 33.6532 33.4572 33.15 33.495L33 33.5H17C16.4954 33.5002 16.0094 33.3096 15.6395 32.9665C15.2695 32.6234 15.0428 32.1532 15.005 31.65L15 31.5V19.5C15 19.38 15.01 19.264 15.03 19.15L15.068 18.982ZM33 17.5C33.121 17.5 33.24 17.51 33.355 17.531L33.525 17.57L25.005 26.09L16.482 17.568C16.592 17.538 16.706 17.518 16.822 17.508L17 17.5H33Z" fill="white"/>
</g>
<defs>
<clipPath id="clip0_0_614">
<rect width="24" height="24" fill="white" transform="translate(13 13.5)"/>
</clipPath>
</defs>
</svg>
