<svg width="50" height="51" viewBox="0 0 50 51" fill="none" xmlns="http://www.w3.org/2000/svg">
<rect y="0.5" width="50" height="50" rx="25" fill="#62C9CC"/>
<path d="M33 24.499H35C35 19.369 31.127 15.5 25.99 15.5V17.5C30.052 17.5 33 20.443 33 24.499Z" fill="white"/>
<path d="M26.0003 21.5002C28.1033 21.5002 29.0003 22.3972 29.0003 24.5002H31.0003C31.0003 21.2752 29.2253 19.5002 26.0003 19.5002V21.5002ZM29.4223 26.9432C29.2301 26.7686 28.9776 26.6754 28.7181 26.6835C28.4585 26.6915 28.2123 26.8001 28.0313 26.9862L25.6383 29.4472C25.0623 29.3372 23.9043 28.9762 22.7123 27.7872C21.5203 26.5942 21.1593 25.4332 21.0523 24.8612L23.5113 22.4672C23.6977 22.2864 23.8064 22.0401 23.8144 21.7804C23.8225 21.5208 23.7292 21.2683 23.5543 21.0762L19.8593 17.0132C19.6843 16.8206 19.4412 16.7037 19.1814 16.6875C18.9217 16.6713 18.6659 16.7569 18.4683 16.9262L16.2983 18.7872C16.1254 18.9608 16.0222 19.1917 16.0083 19.4362C15.9933 19.6862 15.7073 25.6082 20.2993 30.2022C24.3053 34.2072 29.3233 34.5002 30.7053 34.5002C30.9073 34.5002 31.0313 34.4942 31.0643 34.4922C31.3088 34.4786 31.5396 34.3749 31.7123 34.2012L33.5723 32.0302C33.7417 31.8328 33.8276 31.577 33.8115 31.3173C33.7954 31.0576 33.6788 30.8143 33.4863 30.6392L29.4223 26.9432Z" fill="white"/>
</svg>
