<svg width="50" height="51" viewBox="0 0 50 51" fill="none" xmlns="http://www.w3.org/2000/svg">
<rect y="0.5" width="50" height="50" rx="25" fill="#62C9CC"/>
<path d="M25 25C24.337 25 23.7011 24.7366 23.2322 24.2678C22.7634 23.7989 22.5 23.163 22.5 22.5C22.5 21.837 22.7634 21.2011 23.2322 20.7322C23.7011 20.2634 24.337 20 25 20C25.663 20 26.2989 20.2634 26.7678 20.7322C27.2366 21.2011 27.5 21.837 27.5 22.5C27.5 22.8283 27.4353 23.1534 27.3097 23.4567C27.1841 23.76 26.9999 24.0356 26.7678 24.2678C26.5356 24.4999 26.26 24.6841 25.9567 24.8097C25.6534 24.9353 25.3283 25 25 25ZM25 15.5C23.1435 15.5 21.363 16.2375 20.0503 17.5503C18.7375 18.863 18 20.6435 18 22.5C18 27.75 25 35.5 25 35.5C25 35.5 32 27.75 32 22.5C32 20.6435 31.2625 18.863 29.9497 17.5503C28.637 16.2375 26.8565 15.5 25 15.5Z" fill="white"/>
</svg>
