    <svg width="21" height="22" viewBox="0 0 21 22" fill="none"
                                                xmlns="http://www.w3.org/2000/svg">
                                                <g clip-path="url(#clip0_214_606)">
                                                    <path
                                                        d="M21 11C21 5.20105 16.299 0.5 10.5 0.5C4.70105 0.5 0 5.20096 0 11C0 16.2408 3.83972 20.5848 8.85938 21.3724V14.0352H6.19336V11H8.85938V8.68672C8.85938 6.05516 10.427 4.60156 12.8253 4.60156C13.9742 4.60156 15.1758 4.80664 15.1758 4.80664V7.39062H13.8518C12.5473 7.39062 12.1406 8.20003 12.1406 9.03043V11H15.0527L14.5872 14.0352H12.1406V21.3724C17.1603 20.5848 21 16.2409 21 11Z"
                                                        fill="#1877F2"></path>
                                                    <path
                                                        d="M14.5872 14.0352L15.0527 11H12.1406V9.03043C12.1406 8.19995 12.5474 7.39062 13.8518 7.39062H15.1758V4.80664C15.1758 4.80664 13.9742 4.60156 12.8253 4.60156C10.427 4.60156 8.85938 6.05516 8.85938 8.68672V11H6.19336V14.0352H8.85938V21.3724C9.40211 21.4575 9.95064 21.5001 10.5 21.5C11.0494 21.5002 11.5979 21.4575 12.1406 21.3724V14.0352H14.5872Z"
                                                        fill="white"></path>
                                                </g>
                                                <defs>
                                                    <clipPath id="clip0_214_606">
                                                        <rect width="21" height="21" fill="white"
                                                            transform="translate(0 0.5)">
                                                        </rect>
                                                    </clipPath>
                                                </defs>
                                            </svg>