<svg width="51" height="51" viewBox="0 0 51 51" fill="none" xmlns="http://www.w3.org/2000/svg">
<circle cx="25.4863" cy="25.5" r="25" fill="#62C9CC"/>
<g clip-path="url(#clip0_0_547)">
<path d="M18.6942 15.0984C17.7286 15.1922 16.8661 15.4969 16.0411 16.0359C15.6005 16.3172 14.7614 17.1422 14.4755 17.5641C14.0302 18.2297 13.7114 19.0266 13.5521 19.8562C13.4489 20.4281 13.4817 21.7078 13.6177 22.2188C13.8989 23.2594 14.3442 24.0938 15.0286 24.8438L15.3052 25.1484L15.5396 24.9281C16.0974 24.4031 17.0021 24.1641 17.8083 24.3328C18.6521 24.5063 19.4489 25.2141 19.763 26.0719L19.8099 26.1938L20.1052 26.1C20.3067 26.0344 20.5317 26.0016 20.8224 26.0016C21.5677 25.9969 22.1442 26.2406 22.6974 26.7891C23.5224 27.6094 23.7052 28.8281 23.1567 29.8688C23.063 30.0469 22.9974 30.1969 23.0067 30.2016C23.0161 30.2063 23.1474 30.2719 23.2974 30.3516C24.263 30.8484 24.8536 31.9969 24.6942 33.0422C24.6661 33.2297 24.5864 33.5109 24.5255 33.6703L24.4083 33.9563L25.3083 34.8609C25.8052 35.3578 26.288 35.8031 26.3771 35.8453C26.5974 35.9484 27.0567 35.9484 27.2677 35.8406C27.7317 35.6016 27.9521 35.1188 27.8255 34.6125C27.7739 34.4016 27.6896 34.3031 26.8927 33.4922C26.4099 33 25.9786 32.5359 25.9364 32.4516C25.6271 31.8422 26.2692 31.1578 26.9208 31.4109C26.9958 31.4344 27.4646 31.8656 27.9708 32.3625C28.8521 33.2344 28.8942 33.2719 29.138 33.3234C29.9442 33.4969 30.5771 32.8641 30.4036 32.0578C30.3521 31.8141 30.3146 31.7672 29.4239 30.8672C28.6317 30.0656 28.4958 29.9016 28.4536 29.7281C28.3646 29.3766 28.5286 29.0016 28.8333 28.8563C29.0161 28.7719 29.3114 28.7578 29.4989 28.8281C29.5692 28.8563 30.0521 29.2969 30.5677 29.8078C31.3786 30.6094 31.538 30.75 31.7161 30.7969C32.2927 30.9516 32.888 30.525 32.8927 29.9531C32.8927 29.5031 32.9771 29.6016 29.9724 26.5875C28.4208 25.0359 27.1224 23.7656 27.0849 23.7656C27.0474 23.7656 26.7286 24.0516 26.3724 24.3984C25.8333 24.9281 25.6739 25.0594 25.3833 25.1953C24.5442 25.5938 23.6864 25.5891 22.8614 25.1906C22.3974 24.9609 21.8208 24.3938 21.6099 23.9531C21.2161 23.1375 21.2114 22.2188 21.6005 21.3797C21.7317 21.0984 21.8817 20.9344 23.2411 19.5938L24.7411 18.1125L23.8364 17.2219C22.9271 16.3266 22.4864 15.9844 21.8536 15.6656C20.9396 15.2109 19.7302 14.9953 18.6942 15.0984Z" fill="white"/>
<path d="M31.3931 15.3797C30.404 15.5015 29.4571 15.8859 28.6978 16.4765C28.5431 16.5937 27.2165 17.8546 25.7493 19.2796C22.7774 22.1625 22.8618 22.064 22.8618 22.664C22.8618 23.0765 23.0024 23.3953 23.2884 23.639C23.6306 23.9343 24.0759 24.0187 24.5493 23.8781C24.7696 23.8125 24.8774 23.7281 25.4681 23.1515C26.2884 22.35 26.4759 22.2421 27.0806 22.2421C27.7978 22.2468 27.6618 22.1343 30.479 24.9468C31.8478 26.3062 32.9821 27.4218 33.0009 27.4218C33.0712 27.4218 36.0243 24.5906 36.2821 24.2765C36.779 23.6671 37.1353 22.9546 37.3556 22.125C37.4728 21.689 37.5243 20.4843 37.4446 19.9875C37.1728 18.2296 36.0712 16.7109 34.5103 15.9375C33.7274 15.5531 33.1181 15.3937 32.2603 15.3562C31.979 15.3468 31.5853 15.3562 31.3931 15.3797Z" fill="white"/>
<path d="M16.8145 25.9031C16.6036 25.9922 14.9676 27.6141 14.8317 27.8672C14.6958 28.125 14.6958 28.5891 14.8317 28.8516C14.9583 29.0906 15.1504 29.2734 15.3708 29.3625C15.6192 29.4656 16.0739 29.4609 16.2895 29.3484C16.3833 29.2969 16.8661 28.8516 17.3629 28.35C18.1411 27.5672 18.2676 27.4172 18.3145 27.2344C18.4598 26.6906 18.1786 26.1047 17.6723 25.8891C17.4708 25.8094 17.0208 25.8141 16.8145 25.9031Z" fill="white"/>
<path d="M20.5881 27.5578C20.5131 27.5766 20.3865 27.6281 20.3069 27.6703C20.0725 27.7969 17.5319 30.375 17.4475 30.5719C17.349 30.8109 17.3584 31.2422 17.4662 31.4813C17.6303 31.8375 18.0569 32.1094 18.4647 32.1094C18.8772 32.1094 18.9709 32.0391 20.3959 30.6188C21.2678 29.7516 21.7787 29.2078 21.835 29.0859C21.9615 28.8094 21.9522 28.4344 21.8069 28.1391C21.6615 27.8484 21.4272 27.6609 21.1084 27.5766C20.8506 27.5109 20.799 27.5063 20.5881 27.5578Z" fill="white"/>
<path d="M21.6197 31.6829C21.3712 31.8001 20.2181 32.9673 20.1197 33.197C19.8291 33.9095 20.3728 34.7017 21.1556 34.697C21.3525 34.697 21.5025 34.6642 21.6244 34.5985C21.84 34.4907 22.9603 33.3657 23.0634 33.1642C23.2416 32.8079 23.19 32.3251 22.9369 31.997C22.665 31.636 22.0369 31.4907 21.6197 31.6829Z" fill="white"/>
</g>
<defs>
<clipPath id="clip0_0_547">
<rect width="24" height="24" fill="white" transform="translate(13.4863 13.5)"/>
</clipPath>
</defs>
</svg>
