<svg width="42" height="42" viewBox="0 0 42 42" fill="none" xmlns="http://www.w3.org/2000/svg">
<path d="M17.9219 0.68581C8.41247 2.16295 1.13531 10.041 0.420988 19.7096C-0.382626 30.1391 7.29635 39.6734 17.8773 41.4639C23.8151 42.4487 30.2886 40.3449 34.9317 35.9582C39.2623 31.8849 41.3606 26.961 41.3606 21.0525C41.3606 8.5639 30.1547 -1.19419 17.9219 0.68581ZM28.1903 4.62486C35.7353 8.20581 40.0659 16.0839 38.6819 23.8725C38.1462 27.0058 36.2264 31.303 34.7085 32.6458C33.8602 33.4068 33.637 33.4515 32.6548 32.9144C30.4226 31.7058 29.7529 29.8706 29.7529 24.9915V20.5601L31.3155 19.9782C33.1459 19.3515 34.6638 17.561 34.6638 16.0839C34.6638 15.0096 34.5746 15.0096 30.4226 15.0096H26.1813V20.381V25.7972L20.9578 25.663L15.6896 25.5287L15.5557 20.2468L15.4218 15.0096H11.2251C6.53738 15.0096 6.3588 15.1439 7.65351 17.6953C8.32318 19.0382 10.3769 20.381 11.6716 20.381C12.2073 20.381 12.3413 21.0972 12.3413 24.6782C12.3413 29.4677 11.7162 31.1239 9.21609 32.9144L7.92138 33.8544L6.49273 31.9296C3.76938 28.1696 3.23363 26.4687 3.23363 21.0525C3.18899 16.5315 3.27828 15.9049 4.43905 13.5772C6.84989 8.65343 11.6716 4.62486 16.6272 3.37152C19.8416 2.56581 24.9758 3.14772 28.1903 4.62486ZM19.038 30.9001C19.038 32.422 18.9934 32.4668 17.2076 32.4668H15.4218L15.5557 34.123L15.6896 35.8239H20.8238H25.958L26.092 34.123L26.2259 32.4668H24.4401C22.6543 32.4668 22.6096 32.422 22.6096 30.9001V29.3334H24.7526C26.8509 29.3334 26.9849 29.3782 27.7438 31.1239C28.1903 32.1534 29.2618 33.5858 30.11 34.302C31.5387 35.6001 31.5833 35.6896 30.8244 36.2715C29.1725 37.5696 24.9758 38.8677 21.8953 39.0468C18.2791 39.3153 14.6182 38.4649 11.8502 36.6744L10.109 35.6001L11.8948 33.9887C12.877 33.0934 13.9038 31.7058 14.2163 30.8553C14.7074 29.423 14.8414 29.3334 16.8951 29.3334H19.038V30.9001Z" fill="white"/>
</svg>
