<svg width="50" height="60" viewBox="0 0 61 60" fill="none" xmlns="http://www.w3.org/2000/svg">
<path d="M22.1035 4.67578C21.5879 4.99219 21.2363 5.41406 21.1074 5.87109C21.0371 6.10547 20.9902 8.53125 20.9902 11.7773C20.9902 16.8867 21.0137 17.3203 21.2129 17.7539C21.6582 18.7266 22.1855 18.9844 23.7559 18.9844H24.8574V21.1172L24.8691 23.2617L26.9434 21.1172L29.0176 18.9844H33.916C38.4863 18.9844 38.8379 18.9727 39.248 18.7617C39.7988 18.4805 40.0684 18.1758 40.2793 17.6133C40.4785 17.0508 40.5137 6.65625 40.3262 5.95312C40.2559 5.70703 40.0684 5.35547 39.8926 5.15625C39.2832 4.41797 39.7168 4.45312 30.6934 4.45312C22.8652 4.45312 22.4434 4.46484 22.1035 4.67578ZM36.5645 7.45312C36.8809 7.86328 36.8691 8.12109 36.5293 8.51953L36.248 8.84766L31.0449 8.88281C28.1973 8.90625 25.6777 8.88281 25.4668 8.84766C24.6934 8.70703 24.377 7.94531 24.8809 7.41797L25.127 7.14844H30.7285H36.3301L36.5645 7.45312ZM36.4707 11.1211C36.8691 11.5312 36.8926 11.8125 36.5645 12.2344L36.3301 12.5391H30.7402C25.1738 12.5391 25.1621 12.5391 24.8926 12.2812C24.4473 11.8594 24.5645 11.2383 25.1504 10.9219C25.3145 10.8281 27.0957 10.793 30.752 10.7812H36.1309L36.4707 11.1211ZM36.5879 14.8711C36.8926 15.2461 36.8691 15.6562 36.5176 15.9961L36.2363 16.2891H30.7168H25.1973L24.916 15.9961C24.541 15.6328 24.541 15.1875 24.916 14.8125L25.209 14.5195L30.7871 14.5547L36.3652 14.5898L36.5879 14.8711Z" fill="#62C9CC"/>
<path d="M45.7168 15.4219C43.1738 15.7383 42.834 15.8437 42.6465 16.4297C42.5176 16.8164 42.6934 17.2734 43.0801 17.5312C43.3496 17.707 43.502 17.7187 44.4043 17.6016C44.9668 17.543 45.4355 17.4961 45.4473 17.5078C45.4707 17.5195 42.6816 20.0508 39.2715 23.1328C34.1152 27.7734 33.0254 28.6992 32.8613 28.6055C32.1582 28.2305 30.916 28.3711 30.0957 28.9101L29.6387 29.2031L25.4902 27.2812L21.3418 25.3711V24.9609C21.3301 24.082 20.6504 23.0508 19.7598 22.582C19.1035 22.2305 17.8379 22.2305 17.1699 22.582C16.1738 23.1094 15.5996 24.0469 15.5996 25.1484V25.6289L9.18945 29.2969C5.65039 31.3125 2.5918 33.0937 2.39258 33.2461C2.05273 33.4922 2.00586 33.5976 2.00586 34.043C2.00586 34.8984 2.73242 35.2734 3.56445 34.8398C3.77539 34.7344 6.77539 33.0234 10.2441 31.0312L16.5605 27.4101L17.1582 27.7031C18.1426 28.1953 19.4082 28.0898 20.2402 27.4336L20.5215 27.2109L24.6465 29.1094L28.7715 31.0078L28.9121 31.7344C29.0879 32.5898 29.4863 33.2109 30.1426 33.6562C30.7285 34.043 31.1973 34.1484 32.123 34.0781C32.9551 34.0195 33.623 33.6094 34.1738 32.8242C34.502 32.3555 34.5254 32.25 34.5371 31.2187L34.5488 30.1172L40.7832 24.4922C44.2168 21.3984 47.0645 18.8437 47.1113 18.8203C47.1465 18.7969 47.1465 19.1719 47.0996 19.6641C46.9707 21.1758 46.9824 21.3164 47.2988 21.6328C47.5332 21.8672 47.6855 21.9258 48.084 21.8906C48.8809 21.832 48.9629 21.6211 49.1738 19.0664C49.4082 16.207 49.3965 15.7851 49.1504 15.4805C48.8457 15.1055 48.377 15.1055 45.7168 15.4219Z" fill="#62C9CC"/>
<path d="M44.4274 29.004C39.7633 30.0352 36.3297 33.2344 34.9821 37.793C34.5719 39.211 34.4547 41.836 34.7477 43.4063C35.65 48.1407 39.1071 51.8438 43.818 53.1094C45.1891 53.4727 47.8844 53.5313 49.3493 53.2266C53.9196 52.2774 57.4352 49.0196 58.8063 44.4727C59.0993 43.4766 59.1227 43.2774 59.1227 41.1329C59.1227 38.9766 59.111 38.7891 58.8063 37.793C57.7165 34.2071 55.4547 31.5352 52.2204 29.9884C50.404 29.1212 49.525 28.9337 47.1813 28.8751C45.7399 28.8516 44.9782 28.8751 44.4274 29.004ZM49.3141 31.1719C52.4547 31.9219 55.2555 34.3477 56.4274 37.3594C57.5875 40.3009 57.318 43.6055 55.7008 46.3477C54.9625 47.6016 53.3571 49.2071 52.1032 49.9454C47.9782 52.3712 42.7399 51.6446 39.4821 48.1759C35.568 44.0274 35.7321 37.6055 39.8454 33.7266C42.4704 31.254 45.8454 30.3399 49.3141 31.1719Z" fill="#62C9CC"/>
<path d="M45.6577 32.6952C41.0757 33.3983 37.8999 37.5468 38.4507 42.0819C39.0249 46.8046 43.1734 50.0975 47.8843 49.5585C49.8648 49.3358 51.6694 48.4335 53.0523 46.9569C54.4116 45.5155 55.0679 44.1327 55.3257 42.1522C55.7124 39.246 54.5171 36.3397 52.1851 34.4647C50.4273 33.0585 47.8726 32.3671 45.6577 32.6952ZM47.4741 34.5702C47.603 34.6991 47.7437 35.0038 47.7788 35.2499C47.8491 35.6718 47.9077 35.7303 48.4702 35.9647C49.1851 36.2577 50.0523 37.078 50.3452 37.746C50.603 38.3085 50.4976 38.7538 50.0405 39.0116C49.5601 39.2811 49.1616 39.1053 48.7515 38.4374C48.353 37.7928 47.6734 37.3827 46.9937 37.3827C45.8804 37.3827 45.1187 37.9452 45.1069 38.7772C45.0952 39.621 45.5171 39.9022 47.3335 40.3007C48.6577 40.5936 49.4194 40.9803 50.0171 41.6483C51.5054 43.3358 50.6616 45.7616 48.3648 46.4061C47.9077 46.535 47.8491 46.5936 47.7905 46.9569C47.7437 47.1913 47.603 47.496 47.4624 47.6483C46.9234 48.2225 46.0679 47.8124 46.0679 46.9686C46.0679 46.5819 46.0327 46.5233 45.7515 46.453C44.4155 46.1366 43.021 44.6835 43.021 43.6288C43.021 43.2772 43.5132 42.7733 43.8648 42.7733C44.2515 42.785 44.4624 42.9843 44.8023 43.6522C45.2827 44.6249 46.3843 45.0585 47.6616 44.7772C48.5405 44.578 48.9976 44.1678 48.9976 43.5936C48.9976 42.7264 48.4234 42.3046 46.7476 41.9413C44.9429 41.5428 43.9702 40.9218 43.5366 39.8905C43.2905 39.2928 43.3257 38.1327 43.6187 37.535C43.9351 36.8788 44.7671 36.1522 45.4937 35.9178C46.0562 35.7303 46.0679 35.7069 46.0679 35.2616C46.0679 34.4413 46.9234 34.0194 47.4741 34.5702Z" fill="#62C9CC"/>
<path d="M18.0957 29.9414C16.0684 30.3867 14.2988 32.0156 13.584 34.0781C13.209 35.1797 13.209 36.8906 13.584 37.9922C14.6504 41.0859 17.8379 42.8672 20.9785 42.1289C23.0059 41.6484 24.7637 40.0781 25.4551 38.1445C25.7949 37.1602 25.877 35.5547 25.6309 34.5703C24.7637 31.1719 21.541 29.1914 18.0957 29.9414Z" fill="#62C9CC"/>
<path d="M17.4512 44.6953C12.9395 45.5039 9.21289 48.7031 7.81836 53.0156C7.41992 54.2109 7.41992 54.7148 7.81836 55.1836L8.12305 55.5469H19.4785C32.0996 55.5469 31.3027 55.5937 31.5254 54.7734C31.748 53.9883 30.916 51.6562 29.8379 50.0273C29.0996 48.9141 27.5059 47.3203 26.3926 46.582C25.3145 45.8789 23.7324 45.1875 22.4668 44.8711C21.2246 44.5664 18.6934 44.4727 17.4512 44.6953Z" fill="#62C9CC"/>
</svg>
