 <svg width="19" height="19" viewBox="0 0 19 19" fill="none"
                                                xmlns="http://www.w3.org/2000/svg">
                                                <path
                                                    d="M18.4446 9.7028C18.4446 8.95254 18.3824 8.40504 18.248 7.83728H9.50586V11.2236H14.6373C14.5339 12.0651 13.9752 13.3325 12.7337 14.1841L12.7163 14.2975L15.4804 16.3959L15.6719 16.4147C17.4306 14.8229 18.4446 12.4808 18.4446 9.7028Z"
                                                    fill="#4285F4"></path>
                                                <path
                                                    d="M9.50745 18.625C12.0214 18.625 14.1319 17.8139 15.6735 16.4148L12.7353 14.1842C11.949 14.7215 10.8937 15.0967 9.50745 15.0967C7.04518 15.0967 4.95536 13.5049 4.21039 11.3048L4.1012 11.3139L1.22704 13.4937L1.18945 13.5961C2.72061 16.5769 5.86572 18.625 9.50745 18.625Z"
                                                    fill="#34A853"></path>
                                                <path
                                                    d="M4.20942 11.3044C4.01285 10.7367 3.89909 10.1283 3.89909 9.49974C3.89909 8.8711 4.01285 8.26279 4.19908 7.69503L4.19387 7.57411L1.28369 5.35925L1.18848 5.40364C0.557417 6.64058 0.195312 8.02962 0.195312 9.49974C0.195312 10.9699 0.557417 12.3588 1.18848 13.5958L4.20942 11.3044Z"
                                                    fill="#FBBC05"></path>
                                                <path
                                                    d="M9.50745 3.90327C11.2558 3.90327 12.4352 4.6434 13.1077 5.2619L15.7355 2.74747C14.1217 1.27735 12.0214 0.375 9.50745 0.375C5.86572 0.375 2.72061 2.42302 1.18945 5.40379L4.20005 7.69519C4.95536 5.49508 7.04518 3.90327 9.50745 3.90327Z"
                                                    fill="#EB4335"></path>
                                            </svg>