<svg width="40" height="40" viewBox="0 0 40 40" fill="none" xmlns="http://www.w3.org/2000/svg">
<circle cx="20" cy="20" r="19.5" transform="matrix(-1 0 0 1 40 0)" stroke="#62C9CC"/>
<path d="M24.0713 19.9999L23.7177 19.6464L16.2961 12.2247C16.1157 12.0364 16.0159 11.7851 16.0181 11.5242C16.0204 11.262 16.1256 11.0112 16.311 10.8258C16.4964 10.6403 16.7472 10.5352 17.0094 10.5329C17.2703 10.5306 17.5217 10.6304 17.71 10.8109L26.1921 19.2929C26.1921 19.2929 26.1921 19.293 26.1921 19.293C26.3796 19.4805 26.4849 19.7348 26.4849 19.9999C26.4849 20.2651 26.3796 20.5194 26.1921 20.7069C26.1921 20.7069 26.1921 20.7069 26.1921 20.7069L17.7067 29.1923C17.5192 29.3798 17.2648 29.4851 16.9997 29.4851C16.7346 29.4851 16.4803 29.3798 16.2928 29.1924C16.2928 29.1924 16.2927 29.1924 16.2927 29.1923M24.0713 19.9999L15.9392 27.4249C15.658 27.7062 15.5 28.0877 15.5 28.4854C15.5 28.8832 15.658 29.2646 15.9392 29.5459L16.2927 29.1923M24.0713 19.9999L23.7177 20.3535L16.2928 27.7784M24.0713 19.9999L16.2928 27.7784M16.2927 29.1923C16.1053 29.0048 16 28.7505 16 28.4854C16 28.2203 16.1053 27.966 16.2927 27.7785C16.2928 27.7785 16.2928 27.7784 16.2928 27.7784M16.2927 29.1923L16.2928 27.7784" fill="#62C9CC" stroke="#62C9CC"/>
</svg>
