<svg width="40" height="40" viewBox="0 0 40 40" fill="none" xmlns="http://www.w3.org/2000/svg">
<circle cx="20" cy="20" r="19.5" fill="white" stroke="white"/>
<path d="M15.4392 10.4721C15.158 10.7534 15 11.1349 15 11.5326C15 11.9304 15.158 12.3118 15.4392 12.5931L22.8642 20.0181L15.4392 27.4431C15.1659 27.726 15.0148 28.1049 15.0182 28.4982C15.0216 28.8915 15.1793 29.2678 15.4575 29.5459C15.7356 29.824 16.1118 29.9817 16.5051 29.9851C16.8984 29.9886 17.2773 29.8374 17.5602 29.5641L26.0457 21.0786C26.3269 20.7973 26.4849 20.4159 26.4849 20.0181C26.4849 19.6204 26.3269 19.2389 26.0457 18.9576L17.5602 10.4721C17.2789 10.1909 16.8974 10.033 16.4997 10.033C16.1019 10.033 15.7205 10.1909 15.4392 10.4721Z" fill="#62C9CC"/>
</svg>
