<svg width="154" height="62" viewBox="0 0 154 62" fill="none" xmlns="http://www.w3.org/2000/svg">
<path d="M19.7429 9.28203C9.82057 10.8233 2.22743 19.0435 1.48209 29.1319C0.64358 40.0142 8.65598 49.9625 19.6963 51.8307C25.8919 52.8582 32.6466 50.6631 37.4913 46.086C42.0099 41.8358 44.1993 36.6982 44.1993 30.533C44.1993 17.5022 32.5068 7.3204 19.7429 9.28203ZM30.4571 13.3921C38.3298 17.1286 42.8484 25.3487 41.4043 33.4755C40.8453 36.7449 38.8422 41.2286 37.2584 42.6297C36.3733 43.4237 36.1404 43.4704 35.1155 42.91C32.7863 41.6489 32.0876 39.734 32.0876 34.6431V30.0193L33.718 29.4121C35.6279 28.7582 37.2118 26.89 37.2118 25.3487C37.2118 24.2278 37.1186 24.2278 32.7863 24.2278H28.3609V29.8324V35.4838L22.9106 35.3437L17.4137 35.2036L17.274 29.6923L17.1342 24.2278H12.7553C7.86405 24.2278 7.67772 24.3679 9.02865 27.0301C9.7274 28.4313 11.8703 29.8324 13.2212 29.8324C13.7802 29.8324 13.9199 30.5797 13.9199 34.3162C13.9199 39.3137 13.2678 41.0418 10.6591 42.91L9.30815 43.8908L7.81747 41.8825C4.97586 37.9592 4.41686 36.1844 4.41686 30.533C4.37028 25.8158 4.46344 25.1619 5.67462 22.7332C8.19014 17.5956 13.2212 13.3921 18.392 12.0844C21.746 11.2437 27.1031 11.8508 30.4571 13.3921ZM20.9075 40.8082C20.9075 42.3962 20.8609 42.4429 18.9976 42.4429H17.1342L17.274 44.171L17.4137 45.9458H22.7708H28.128L28.2677 44.171L28.4075 42.4429H26.5441C24.6808 42.4429 24.6342 42.3962 24.6342 40.8082V39.1735H26.8702C29.0596 39.1735 29.1994 39.2202 29.9913 41.0418C30.4571 42.116 31.5752 43.6106 32.4602 44.3579C33.9509 45.7123 33.9975 45.8057 33.2056 46.4129C31.482 47.7674 27.1031 49.1218 23.8888 49.3086C20.1156 49.5889 16.2957 48.7015 13.4075 46.8332L11.5907 45.7123L13.4541 44.0309C14.4789 43.0968 15.5504 41.6489 15.8764 40.7615C16.3889 39.267 16.5286 39.1735 18.6715 39.1735H20.9075V40.8082Z" fill="white"/>
<path d="M18.2514 15.5405C15.8757 16.3344 13.5465 17.7356 12.1024 19.2769L10.9844 20.4912H12.8477C14.0123 20.4912 15.7359 19.9775 17.18 19.2302C20.6272 17.4554 24.8197 17.4087 28.4067 19.1835C30.829 20.3978 34.416 20.9583 34.416 20.1176C34.416 19.5104 31.1551 17.1751 28.9191 16.1943C26.1707 14.98 20.9533 14.653 18.2514 15.5405Z" fill="white"/>
<path d="M96.3712 22.3595C96.3712 23.9008 96.2314 24.2277 95.4395 24.2277C94.7407 24.2277 94.5078 24.5547 94.5078 25.3954C94.5078 26.2361 94.7407 26.563 95.4395 26.563C96.278 26.563 96.3712 26.8899 96.3712 30.2994C96.3712 33.7089 96.5109 34.176 97.5358 35.2035C98.3743 36.0442 99.1662 36.3712 100.564 36.3712C102.241 36.3712 102.427 36.2777 102.427 35.2035C102.427 34.3161 102.194 34.0359 101.356 34.0359C99.632 34.0359 99.1662 33.1485 99.1662 29.739V26.563H100.564C101.728 26.563 101.961 26.3762 101.961 25.3954C101.961 24.4145 101.728 24.2277 100.564 24.2277C99.2593 24.2277 99.1662 24.1343 99.1662 22.3595C99.1662 20.5847 99.073 20.4913 97.7687 20.4913C96.4643 20.4913 96.3712 20.5847 96.3712 22.3595Z" fill="white"/>
<path d="M56.6843 24.6015C55.2868 25.3488 54.9142 25.3955 54.9142 24.8817C54.9142 24.4613 54.4017 24.2278 53.5167 24.2278H52.1191V32.8683V41.5089H53.5167H54.9142V38.1928V34.9234L55.939 35.624C56.498 36.0443 57.8955 36.3712 59.0135 36.3712C60.6905 36.3712 61.3427 36.091 62.6005 34.83C67.4918 29.9259 62.6005 21.5189 56.6843 24.6015ZM60.97 27.8241C62.8334 30.2061 61.203 34.036 58.4079 34.036C57.8489 34.036 56.8241 33.6156 56.1253 33.0552C54.5881 31.8408 54.4017 28.9451 55.8458 27.4972C57.2433 26.096 59.7123 26.2362 60.97 27.8241Z" fill="white"/>
<path d="M70.5212 24.0876C66.6082 25.1618 64.8846 30.533 67.2604 34.2227C68.6579 36.3244 72.7572 37.1184 74.8535 35.6239C75.7852 34.97 75.8783 34.97 75.8783 35.6239C75.8783 36.1376 76.3442 36.3711 77.2759 36.3711H78.6734V30.2994V24.2277H77.2759C76.2976 24.2277 75.8783 24.4612 75.8783 25.0217C75.8783 25.7223 75.8318 25.7223 75.0398 25.0217C74.1082 24.1343 71.9187 23.714 70.5212 24.0876ZM74.9467 27.4971C76.3908 28.945 76.2044 31.8407 74.6672 33.0551C72.2914 34.9233 69.543 33.8023 69.0771 30.7665C68.5181 27.357 72.5709 25.1151 74.9467 27.4971Z" fill="white"/>
<path d="M86.0317 24.6014C84.6342 25.3486 84.2615 25.3954 84.2615 24.8816C84.2615 24.4612 83.7491 24.2277 82.864 24.2277H81.4199L81.5597 30.1593L81.6994 36.1376L83.0038 36.2777L84.2615 36.4178V32.9149C84.2615 28.7581 84.7739 27.2169 86.3112 26.4696C87.2429 26.0492 87.7087 26.0959 88.687 26.7498C89.805 27.4971 89.8516 27.7306 89.8516 31.9341V36.3711H91.2491H92.6466V31.5138C92.6466 27.0767 92.5534 26.5163 91.6218 25.4421C90.1777 23.7607 88.1746 23.4804 86.0317 24.6014Z" fill="white"/>
<path d="M107.132 24.3678C105.036 25.1151 103.778 26.8899 103.498 29.4587C103.033 33.5688 105.455 36.3712 109.415 36.3712C112.21 36.3712 115.005 34.6431 115.005 32.9149C115.005 32.3078 112.303 32.6814 111.744 33.3353C110.905 34.3628 108.203 34.2227 107.085 33.1018C105.455 31.4671 105.967 31.2336 110.579 31.2336H115.005V29.5989C115.005 25.3487 111.278 22.8733 107.132 24.3678ZM111.371 26.8899C113.002 28.3845 112.443 28.8983 109.182 28.8983C105.967 28.8983 105.548 28.5713 107.085 27.0301C108.203 25.9091 110.207 25.8157 111.371 26.8899Z" fill="white"/>
<path d="M129.681 24.0876C127.864 24.6014 126.699 25.7223 125.907 27.7306C124.883 30.4863 125.348 32.8215 127.352 34.8299C128.609 36.0909 129.261 36.3712 130.938 36.3712C132.056 36.3712 133.454 36.0442 134.013 35.6239C134.945 34.97 135.038 34.97 135.038 35.6239C135.038 36.1376 135.504 36.3712 136.435 36.3712H137.833V30.2994V24.2277H136.435C135.457 24.2277 135.038 24.4613 135.038 25.0217C135.038 25.7223 134.991 25.7223 134.199 25.0217C133.268 24.1343 131.078 23.714 129.681 24.0876ZM134.106 27.4971C135.364 28.7582 135.364 31.6539 134.106 33.0084C132.895 34.2694 130.845 34.3161 129.401 33.1485C128.004 32.0275 127.864 28.9917 129.168 27.5438C130.333 26.2828 132.848 26.2361 134.106 27.4971Z" fill="white"/>
<path d="M117.338 30.2994V36.3712H118.735H120.133V32.9617C120.133 28.8983 120.785 27.4037 122.835 26.7965C123.953 26.4696 124.325 26.0959 124.325 25.302C124.325 23.9008 122.416 23.8074 121.065 25.1618L120.133 26.0959V25.1618C120.133 24.4145 119.807 24.2277 118.735 24.2277H117.338V30.2994Z" fill="white"/>
<path d="M149.252 37.1561C149.252 39.4036 147.434 41.2255 145.193 41.2255C142.952 41.2255 141.134 39.4036 141.134 37.1561C141.134 34.9086 142.952 33.0868 145.193 33.0868C147.434 33.0868 149.252 34.9086 149.252 37.1561Z" stroke="white" stroke-width="0.0695614"/>
<path d="M146.561 39.8921H146.03L145.393 38.3581C145.335 38.2156 145.278 38.0948 145.223 37.9956C145.168 37.8938 145.112 37.8111 145.053 37.7475C144.997 37.6839 144.935 37.6382 144.867 37.6102C144.802 37.5796 144.728 37.5644 144.644 37.5644H144.278V39.8921H143.832V34.42H144.968C145.135 34.42 145.288 34.4505 145.427 34.5116C145.569 34.5701 145.691 34.6604 145.794 34.7825C145.898 34.9046 145.98 35.0573 146.038 35.2404C146.096 35.421 146.126 35.6335 146.126 35.8777C146.126 36.0685 146.105 36.244 146.065 36.4043C146.026 36.562 145.969 36.7032 145.895 36.8279C145.822 36.9525 145.734 37.0594 145.629 37.1484C145.527 37.2349 145.411 37.3023 145.281 37.3507V37.3659C145.345 37.4066 145.4 37.4537 145.446 37.5071C145.494 37.558 145.539 37.6191 145.581 37.6903C145.624 37.7615 145.665 37.8429 145.706 37.9345C145.749 38.0236 145.796 38.1279 145.847 38.2474L146.561 39.8921ZM144.278 35V36.9843H144.883C144.995 36.9843 145.097 36.9602 145.191 36.9118C145.287 36.8635 145.369 36.7948 145.438 36.7058C145.507 36.6142 145.561 36.5035 145.6 36.3738C145.639 36.2415 145.658 36.0939 145.658 35.9311C145.658 35.6386 145.592 35.4109 145.459 35.2481C145.328 35.0827 145.138 35 144.889 35H144.278Z" fill="white"/>
</svg>
