<svg width="147" height="59" viewBox="0 0 147 59" fill="none" xmlns="http://www.w3.org/2000/svg">
<path d="M18.9219 8.68581C9.41247 10.163 2.13531 18.041 1.42099 27.7096C0.617374 38.1391 8.29635 47.6734 18.8773 49.4639C24.8151 50.4487 31.2886 48.3449 35.9317 43.9582C40.2623 39.8849 42.3606 34.961 42.3606 29.0525C42.3606 16.5639 31.1547 6.80581 18.9219 8.68581ZM29.1903 12.6249C36.7353 16.2058 41.0659 24.0839 39.6819 31.8725C39.1462 35.0058 37.2264 39.303 35.7085 40.6458C34.8602 41.4068 34.637 41.4515 33.6548 40.9144C31.4226 39.7058 30.7529 37.8706 30.7529 32.9915V28.5601L32.3155 27.9782C34.1459 27.3515 35.6638 25.561 35.6638 24.0839C35.6638 23.0096 35.5746 23.0096 31.4226 23.0096H27.1813V28.381V33.7972L21.9578 33.663L16.6896 33.5287L16.5557 28.2468L16.4218 23.0096H12.2251C7.53738 23.0096 7.3588 23.1439 8.65351 25.6953C9.32318 27.0382 11.3769 28.381 12.6716 28.381C13.2073 28.381 13.3413 29.0972 13.3413 32.6782C13.3413 37.4677 12.7162 39.1239 10.2161 40.9144L8.92138 41.8544L7.49273 39.9296C4.76938 36.1696 4.23363 34.4687 4.23363 29.0525C4.18899 24.5315 4.27828 23.9049 5.43905 21.5772C7.84989 16.6534 12.6716 12.6249 17.6272 11.3715C20.8416 10.5658 25.9758 11.1477 29.1903 12.6249ZM20.038 38.9001C20.038 40.422 19.9934 40.4668 18.2076 40.4668H16.4218L16.5557 42.123L16.6896 43.8239H21.8238H26.958L27.092 42.123L27.2259 40.4668H25.4401C23.6543 40.4668 23.6096 40.422 23.6096 38.9001V37.3334H25.7526C27.8509 37.3334 27.9849 37.3782 28.7438 39.1239C29.1903 40.1534 30.2618 41.5858 31.11 42.302C32.5387 43.6001 32.5833 43.6896 31.8244 44.2715C30.1725 45.5696 25.9758 46.8677 22.8953 47.0468C19.2791 47.3153 15.6182 46.4649 12.8502 44.6744L11.109 43.6001L12.8948 41.9887C13.877 41.0934 14.9038 39.7058 15.2163 38.8553C15.7074 37.423 15.8414 37.3334 17.8951 37.3334H20.038V38.9001Z" fill="white"/>
<path d="M17.492 14.6838C15.2151 15.4448 12.9828 16.7877 11.5988 18.2648L10.5273 19.4286H12.3132C13.4293 19.4286 15.0812 18.9362 16.4652 18.22C19.7689 16.5191 23.787 16.4743 27.2246 18.1753C29.5462 19.3391 32.9839 19.8762 32.9839 19.0705C32.9839 18.4886 29.8587 16.2505 27.7157 15.3105C25.0817 14.1467 20.0814 13.8334 17.492 14.6838Z" fill="white"/>
<path d="M92.3649 21.2191C92.3649 22.6962 92.231 23.0095 91.472 23.0095C90.8023 23.0095 90.5791 23.3229 90.5791 24.1286C90.5791 24.9343 90.8023 25.2476 91.472 25.2476C92.2756 25.2476 92.3649 25.561 92.3649 28.8286C92.3649 32.0962 92.4988 32.5438 93.481 33.5286C94.2847 34.3343 95.0436 34.6476 96.383 34.6476C97.9902 34.6476 98.1688 34.5581 98.1688 33.5286C98.1688 32.6781 97.9456 32.4095 97.1419 32.4095C95.4901 32.4095 95.0436 31.5591 95.0436 28.2915V25.2476H96.383C97.4991 25.2476 97.7223 25.0686 97.7223 24.1286C97.7223 23.1886 97.4991 23.0095 96.383 23.0095C95.1329 23.0095 95.0436 22.92 95.0436 21.2191C95.0436 19.5181 94.9543 19.4286 93.7043 19.4286C92.4542 19.4286 92.3649 19.5181 92.3649 21.2191Z" fill="white"/>
<path d="M54.3254 23.3677C52.9861 24.0839 52.6289 24.1287 52.6289 23.6363C52.6289 23.2334 52.1378 23.0096 51.2896 23.0096H49.9502V31.2906V39.5715H51.2896H52.6289V36.3934V33.2601L53.6111 33.9315C54.1468 34.3344 55.4862 34.6477 56.5577 34.6477C58.1649 34.6477 58.7899 34.3792 59.9954 33.1706C64.6831 28.4706 59.9954 20.4134 54.3254 23.3677ZM58.4328 26.4563C60.2186 28.7392 58.656 32.4096 55.9773 32.4096C55.4416 32.4096 54.4594 32.0068 53.7897 31.4696C52.3164 30.3058 52.1378 27.5306 53.5218 26.143C54.8612 24.8001 57.2274 24.9344 58.4328 26.4563Z" fill="white"/>
<path d="M67.5855 22.8753C63.8353 23.9048 62.1834 29.0524 64.4603 32.5886C65.7997 34.6029 69.7285 35.3639 71.7375 33.9315C72.6304 33.3048 72.7197 33.3048 72.7197 33.9315C72.7197 34.4239 73.1662 34.6477 74.0591 34.6477H75.3984V28.8286V23.0096H74.0591C73.1215 23.0096 72.7197 23.2334 72.7197 23.7705C72.7197 24.442 72.6751 24.442 71.9161 23.7705C71.0232 22.9201 68.9249 22.5172 67.5855 22.8753ZM71.8268 26.1429C73.2108 27.5305 73.0322 30.3058 71.5589 31.4696C69.282 33.2601 66.648 32.1858 66.2015 29.2762C65.6658 26.0086 69.5499 23.8601 71.8268 26.1429Z" fill="white"/>
<path d="M82.4521 23.3677C81.1127 24.0839 80.7556 24.1286 80.7556 23.6363C80.7556 23.2334 80.2645 23.0096 79.4162 23.0096H78.0322L78.1662 28.6943L78.3001 34.4239L79.5502 34.5582L80.7556 34.6924V31.3353C80.7556 27.3515 81.2467 25.8743 82.72 25.1582C83.6129 24.7553 84.0593 24.8001 84.9969 25.4267C86.0684 26.1429 86.113 26.3667 86.113 30.3953V34.6477H87.4524H88.7917V29.9924C88.7917 25.7401 88.7024 25.2029 87.8095 24.1734C86.4255 22.562 84.5058 22.2934 82.4521 23.3677Z" fill="white"/>
<path d="M102.675 23.1438C100.666 23.86 99.4603 25.561 99.1924 28.0229C98.7459 31.9619 101.067 34.6476 104.862 34.6476C107.541 34.6476 110.22 32.9915 110.22 31.3353C110.22 30.7534 107.63 31.1115 107.095 31.7381C106.291 32.7229 103.702 32.5886 102.63 31.5143C101.067 29.9476 101.559 29.7238 105.978 29.7238H110.22V28.1572C110.22 24.0838 106.648 21.7115 102.675 23.1438ZM106.737 25.561C108.3 26.9934 107.764 27.4857 104.639 27.4857C101.559 27.4857 101.157 27.1724 102.63 25.6953C103.702 24.621 105.621 24.5315 106.737 25.561Z" fill="white"/>
<path d="M124.285 22.8753C122.544 23.3677 121.428 24.442 120.669 26.3668C119.687 29.0077 120.133 31.2458 122.053 33.1706C123.258 34.3791 123.883 34.6477 125.49 34.6477C126.562 34.6477 127.901 34.3344 128.437 33.9315C129.33 33.3048 129.419 33.3048 129.419 33.9315C129.419 34.4239 129.866 34.6477 130.759 34.6477H132.098V28.8287V23.0096H130.759C129.821 23.0096 129.419 23.2334 129.419 23.7706C129.419 24.442 129.375 24.442 128.616 23.7706C127.723 22.9201 125.624 22.5172 124.285 22.8753ZM128.526 26.1429C129.732 27.3515 129.732 30.1268 128.526 31.4248C127.365 32.6334 125.401 32.6782 124.017 31.5591C122.678 30.4848 122.544 27.5753 123.794 26.1877C124.91 24.9791 127.321 24.9344 128.526 26.1429Z" fill="white"/>
<path d="M112.454 28.8286V34.6476H113.793H115.133V31.38C115.133 27.4857 115.758 26.0534 117.722 25.4715C118.794 25.1581 119.151 24.8 119.151 24.0391C119.151 22.6962 117.32 22.6067 116.026 23.9048L115.133 24.8V23.9048C115.133 23.1886 114.82 23.0095 113.793 23.0095H112.454V28.8286Z" fill="white"/>
<path d="M143.043 35.4C143.043 37.554 141.302 39.3 139.154 39.3C137.005 39.3 135.264 37.554 135.264 35.4C135.264 33.246 137.005 31.5 139.154 31.5C141.302 31.5 143.043 33.246 143.043 35.4Z" stroke="white" strokeWidth="0.0666667"/>
<path d="M140.462 38.0222H139.953L139.343 36.552C139.287 36.4154 139.232 36.2996 139.18 36.2045C139.127 36.107 139.073 36.0278 139.017 35.9668C138.963 35.9058 138.903 35.862 138.839 35.8351C138.776 35.8059 138.705 35.7913 138.625 35.7913H138.274V38.0222H137.847V32.7777H138.936C139.095 32.7777 139.242 32.807 139.376 32.8655C139.511 32.9216 139.628 33.0081 139.727 33.1251C139.827 33.2422 139.905 33.3885 139.961 33.564C140.017 33.7371 140.045 33.9407 140.045 34.1748C140.045 34.3576 140.025 34.5259 139.986 34.6795C139.949 34.8306 139.895 34.9659 139.823 35.0854C139.754 35.2049 139.669 35.3073 139.569 35.3926C139.471 35.4755 139.36 35.5401 139.236 35.5864V35.6011C139.297 35.6401 139.349 35.6852 139.394 35.7364C139.439 35.7852 139.483 35.8437 139.523 35.9119C139.564 35.9802 139.604 36.0582 139.643 36.146C139.684 36.2313 139.729 36.3313 139.778 36.4459L140.462 38.0222ZM138.274 33.3336V35.2354H138.854C138.961 35.2354 139.059 35.2122 139.149 35.1659C139.241 35.1195 139.32 35.0537 139.386 34.9684C139.452 34.8806 139.504 34.7745 139.541 34.6502C139.578 34.5234 139.597 34.382 139.597 34.226C139.597 33.9456 139.533 33.7274 139.406 33.5713C139.281 33.4128 139.098 33.3336 138.859 33.3336H138.274Z" fill="white"/>
</svg>
