<svg width="180" height="57" viewBox="0 0 180 57" fill="none" xmlns="http://www.w3.org/2000/svg">
<path d="M24.1568 0.818542C11.1014 2.84121 1.11069 13.6287 0.130006 26.868C-0.973266 41.1492 9.5691 54.2046 24.0955 56.6563C32.2475 58.0048 41.1349 55.124 47.5094 49.1173C53.4548 43.5397 56.3355 36.7974 56.3355 28.7068C56.3355 11.6061 40.951 -1.75576 24.1568 0.818542ZM38.2542 6.21231C48.6126 11.1157 54.5581 21.9033 52.658 32.5682C51.9225 36.8587 49.2869 42.7429 47.2029 44.5816C46.0383 45.6236 45.7319 45.6849 44.3834 44.9494C41.3188 43.2945 40.3994 40.7815 40.3994 34.1006V28.0326L42.5447 27.2358C45.0577 26.3777 47.1416 23.9259 47.1416 21.9033C47.1416 20.4323 47.019 20.4323 41.3188 20.4323H35.496V27.7874V35.2038L28.3247 35.02L21.0922 34.8361L20.9083 27.6035L20.7244 20.4323H14.9629C8.52713 20.4323 8.28195 20.6161 10.0594 24.1098C10.9788 25.9486 13.7983 27.7874 15.5758 27.7874C16.3113 27.7874 16.4952 28.7681 16.4952 33.6715C16.4952 40.2298 15.6371 42.4977 12.2047 44.9494L10.4272 46.2365L8.46583 43.601C4.72697 38.4524 3.99146 36.1232 3.99146 28.7068C3.93016 22.5162 4.05275 21.6581 5.64636 18.4709C8.95618 11.7287 15.5758 6.21231 22.3793 4.49611C26.7924 3.39284 33.8411 4.18965 38.2542 6.21231ZM25.6891 42.1912C25.6891 44.2752 25.6278 44.3365 23.1761 44.3365H20.7244L20.9083 46.6043L21.0922 48.9334H28.1408H35.1895L35.3734 46.6043L35.5573 44.3365H33.1056C30.6538 44.3365 30.5926 44.2752 30.5926 42.1912V40.046H33.5346C36.4154 40.046 36.5993 40.1073 37.6412 42.4977C38.2542 43.9074 39.7252 45.8688 40.8898 46.8495C42.8511 48.627 42.9124 48.7496 41.8704 49.5464C39.6026 51.3239 33.8411 53.1013 29.6119 53.3465C24.6471 53.7143 19.6211 52.5497 15.821 50.098L13.4306 48.627L15.8823 46.4204C17.2307 45.1946 18.6404 43.2945 19.0695 42.1299C19.7437 40.1686 19.9276 40.046 22.7471 40.046H25.6891V42.1912Z" fill="white"/>
<path d="M22.1935 9.03246C19.0676 10.0744 16.0029 11.9132 14.1029 13.9359L12.6318 15.5295H15.0835C16.6159 15.5295 18.8837 14.8553 20.7838 13.8746C25.3195 11.5455 30.8358 11.4842 35.5554 13.8133C38.7426 15.4069 43.4621 16.1424 43.4621 15.0392C43.4621 14.2424 39.1716 11.1777 36.2296 9.89056C32.6133 8.29695 25.7485 7.8679 22.1935 9.03246Z" fill="white"/>
<path d="M124.986 17.9803C124.986 20.003 124.802 20.432 123.76 20.432C122.841 20.432 122.534 20.8611 122.534 21.9643C122.534 23.0676 122.841 23.4967 123.76 23.4967C124.863 23.4967 124.986 23.9257 124.986 28.4001C124.986 32.8745 125.17 33.4874 126.518 34.8358C127.621 35.9391 128.663 36.3682 130.502 36.3682C132.709 36.3682 132.954 36.2456 132.954 34.8358C132.954 33.6713 132.647 33.3035 131.544 33.3035C129.276 33.3035 128.663 32.139 128.663 27.6646V23.4967H130.502C132.035 23.4967 132.341 23.2515 132.341 21.9643C132.341 20.6772 132.035 20.432 130.502 20.432C128.786 20.432 128.663 20.3094 128.663 17.9803C128.663 15.6512 128.541 15.5286 126.825 15.5286C125.108 15.5286 124.986 15.6512 124.986 17.9803Z" fill="white"/>
<path d="M72.7616 20.9228C70.9228 21.9035 70.4325 21.9648 70.4325 21.2906C70.4325 20.739 69.7582 20.4325 68.5937 20.4325H66.7549V31.7717V43.1108H68.5937H70.4325V38.759V34.4685L71.7809 35.3879C72.5164 35.9396 74.3552 36.3686 75.8262 36.3686C78.0328 36.3686 78.8909 36.0009 80.5458 34.346C86.9815 27.9102 80.5458 16.8775 72.7616 20.9228ZM78.4005 25.152C80.8522 28.278 78.707 33.304 75.0294 33.304C74.2939 33.304 72.9455 32.7523 72.0261 32.0168C70.0034 30.4232 69.7582 26.6231 71.6583 24.723C73.4971 22.8842 76.7456 23.0681 78.4005 25.152Z" fill="white"/>
<path d="M90.9656 20.2491C85.817 21.6588 83.5492 28.7075 86.6751 33.5497C88.5139 36.3078 93.9077 37.3498 96.6658 35.3884C97.8917 34.5303 98.0143 34.5303 98.0143 35.3884C98.0143 36.0627 98.6272 36.3691 99.8531 36.3691H101.692V28.4011V20.433H99.8531C98.5659 20.433 98.0143 20.7394 98.0143 21.475C98.0143 22.3944 97.953 22.3944 96.911 21.475C95.6851 20.3104 92.8044 19.7588 90.9656 20.2491ZM96.7884 24.7235C98.6885 26.6236 98.4433 30.4237 96.4207 32.0173C93.2947 34.469 89.6784 32.998 89.0655 29.014C88.33 24.5396 93.6625 21.5975 96.7884 24.7235Z" fill="white"/>
<path d="M111.377 20.9216C109.538 21.9023 109.047 21.9636 109.047 21.2894C109.047 20.7377 108.373 20.4313 107.209 20.4313H105.309L105.492 28.2155L105.676 36.061L107.393 36.2448L109.047 36.4287V31.8317C109.047 26.3767 109.722 24.354 111.744 23.3733C112.97 22.8217 113.583 22.883 114.87 23.7411C116.341 24.7218 116.403 25.0282 116.403 30.5446V36.3674H118.241H120.08V29.993C120.08 24.1701 119.958 23.4346 118.732 22.0249C116.832 19.8183 114.196 19.4506 111.377 20.9216Z" fill="white"/>
<path d="M139.14 20.6159C136.382 21.5966 134.727 23.9257 134.359 27.2968C133.746 32.6906 136.934 36.3682 142.143 36.3682C145.821 36.3682 149.499 34.1003 149.499 31.8325C149.499 31.0357 145.944 31.526 145.208 32.3841C144.105 33.7326 140.55 33.5487 139.079 32.0777C136.934 29.9324 137.608 29.626 143.676 29.626H149.499V27.4807C149.499 21.9031 144.595 18.6545 139.14 20.6159ZM144.718 23.9257C146.863 25.8871 146.128 26.5613 141.837 26.5613C137.608 26.5613 137.056 26.1323 139.079 24.1096C140.55 22.6386 143.185 22.516 144.718 23.9257Z" fill="white"/>
<path d="M168.807 20.2481C166.417 20.9224 164.884 22.3934 163.842 25.029C162.494 28.6453 163.107 31.7099 165.742 34.3455C167.397 36.0004 168.255 36.3682 170.462 36.3682C171.933 36.3682 173.772 35.9391 174.507 35.3875C175.733 34.5294 175.856 34.5294 175.856 35.3875C175.856 36.0617 176.469 36.3682 177.694 36.3682H179.533V28.4001V20.432H177.694C176.407 20.432 175.856 20.7385 175.856 21.474C175.856 22.3934 175.794 22.3934 174.752 21.474C173.527 20.3094 170.646 19.7578 168.807 20.2481ZM174.63 24.7225C176.285 26.3774 176.285 30.1776 174.63 31.9551C173.036 33.61 170.339 33.6713 168.439 32.139C166.6 30.6679 166.417 26.6839 168.133 24.7838C169.665 23.1289 172.975 23.0676 174.63 24.7225Z" fill="white"/>
<path d="M152.566 28.4001V36.3682H154.405H156.244V31.8938C156.244 26.5613 157.102 24.5999 159.799 23.8031C161.27 23.3741 161.76 22.8837 161.76 21.8418C161.76 20.003 159.247 19.8804 157.47 21.6579L156.244 22.8837V21.6579C156.244 20.6772 155.815 20.432 154.405 20.432H152.566V28.4001Z" fill="white"/>
</svg>
