<svg class='Phone' width="40" height="40" viewBox="0 0 40 40" fill="none" xmlns="http://www.w3.org/2000/svg">
<rect width="40" height="40" rx="20" fill="#DEFEFF"/>
<path    className="child_1" d="M28.3333 18.9572H30.4167C30.4167 13.6135 26.3823 9.58325 21.0312 9.58325V11.6666C25.2625 11.6666 28.3333 14.7322 28.3333 18.9572Z" fill="#62C9CC"/>
<path d="M21.1396 15.7366C23.3302 15.7366 24.2646 16.671 24.2646 18.8616H26.3479C26.3479 15.5023 24.499 13.6533 21.1396 13.6533V15.7366ZM24.7042 21.4064C24.504 21.2245 24.241 21.1275 23.9707 21.1358C23.7003 21.1442 23.4438 21.2573 23.2552 21.4512L20.7625 24.0148C20.1625 23.9002 18.9563 23.5241 17.7146 22.2856C16.4729 21.0429 16.0969 19.8335 15.9855 19.2377L18.5469 16.7439C18.7411 16.5555 18.8543 16.299 18.8627 16.0285C18.8711 15.7581 18.7739 15.495 18.5917 15.295L14.7427 11.0627C14.5605 10.862 14.3072 10.7403 14.0367 10.7234C13.7661 10.7065 13.4996 10.7957 13.2938 10.9721L11.0334 12.9106C10.8533 13.0914 10.7458 13.3319 10.7313 13.5866C10.7157 13.8471 10.4177 20.0158 15.2011 24.8012C19.374 28.9731 24.6011 29.2783 26.0407 29.2783C26.2511 29.2783 26.3802 29.2721 26.4146 29.27C26.6693 29.2557 26.9097 29.1478 27.0896 28.9669L29.0271 26.7054C29.2036 26.4997 29.293 26.2333 29.2763 25.9627C29.2596 25.6922 29.1381 25.4388 28.9375 25.2564L24.7042 21.4064Z" fill="#62C9CC"/>
</svg>
