<svg width="51" height="51" viewBox="0 0 51 51" fill="none" xmlns="http://www.w3.org/2000/svg">
<circle cx="25.9863" cy="25.5" r="25" fill="#62C9CC"/>
<g clip-path="url(#clip0_0_577)">
<path d="M24.0363 15.2437C23.9145 15.5625 23.7598 15.9656 23.6895 16.1437L23.5629 16.4625L23.052 16.6219C22.4098 16.8141 21.9691 16.9969 21.3551 17.3203L20.877 17.5781L20.0332 17.2031C19.5691 16.9969 19.1707 16.8281 19.152 16.8281C19.1332 16.8281 18.6504 17.2969 18.0785 17.8687L17.0426 18.9141L17.2207 19.3125C17.3191 19.5328 17.4926 19.9219 17.6051 20.1797L17.816 20.6531L17.6285 20.9766C17.3707 21.4312 17.0098 22.275 16.8457 22.8375C16.766 23.0953 16.7051 23.3156 16.7051 23.3203C16.7051 23.325 16.3066 23.4844 15.8145 23.6719L14.9238 24.0141V25.5V26.9859L15.8145 27.3281C16.3066 27.5156 16.7051 27.675 16.7051 27.6797C16.7051 27.6844 16.7707 27.9047 16.8457 28.1672C17.0098 28.7203 17.366 29.5594 17.6285 30.0234L17.816 30.3469L17.6051 30.8203C17.4926 31.0781 17.3191 31.4672 17.2207 31.6875L17.0426 32.0859L18.0785 33.1266C18.6504 33.7031 19.1332 34.1719 19.152 34.1719C19.1707 34.1719 19.5691 34.0031 20.0332 33.7969L20.877 33.4219L21.3551 33.6797C21.9691 34.0031 22.4098 34.1859 23.052 34.3781L23.5629 34.5375L23.6895 34.8562C23.7598 35.0344 23.9145 35.4375 24.0363 35.7562L24.2613 36.3281L25.7379 36.3187L27.2145 36.3047L27.3457 35.9766C27.416 35.7937 27.5707 35.3906 27.6926 35.0719C27.8566 34.6594 27.9363 34.5 27.9926 34.5C28.2832 34.4953 29.877 33.8484 30.4254 33.5109L30.5754 33.4172L31.4285 33.7922C31.8973 34.0031 32.3051 34.1719 32.3332 34.1719C32.3613 34.1719 32.8488 33.7078 33.4113 33.1453L34.4379 32.1187L34.0535 31.2469L33.6645 30.3797L33.4863 30.3516C33.3785 30.3328 32.966 30.375 32.4035 30.4641C30.4676 30.7687 29.7551 30.7641 28.7895 30.4359L28.4285 30.3141L28.0066 30.5062C26.0191 31.4297 23.6613 31.0547 22.0066 29.55C21.2145 28.8281 20.6801 27.9187 20.3707 26.7703C20.2629 26.3672 20.2535 26.2312 20.2535 25.5C20.2535 24.7687 20.2629 24.6328 20.3707 24.2297C20.6801 23.0812 21.2145 22.1719 22.0066 21.45C23.6566 19.9453 26.0191 19.5703 28.002 20.4891L28.4191 20.6859L28.6441 20.4937C29.0566 20.1516 29.366 19.7859 29.516 19.4672L29.666 19.1484L29.6801 18.1266L29.6988 17.1094L29.3988 16.9734C29.0848 16.8281 28.0957 16.5 27.9832 16.5C27.941 16.5 27.8332 16.2891 27.6926 15.9234C27.5707 15.6094 27.416 15.2016 27.3457 15.0234L27.2145 14.6953L25.7379 14.6812L24.2613 14.6719L24.0363 15.2437Z" fill="white"/>
<path d="M30.3926 17.7281C30.3926 19.0547 30.3551 19.3078 30.102 19.8281C29.9426 20.1562 29.8348 20.3016 29.4832 20.6484C29.2441 20.8781 28.8176 21.2391 28.527 21.4453L28.002 21.8203V25.5281V29.2406L28.2598 29.4141C28.8457 29.8031 29.4129 29.9578 30.2754 29.9672C30.852 29.9719 32.1457 29.8406 32.2676 29.7656C32.3051 29.7422 32.291 29.6719 32.216 29.5266C32.1223 29.3578 32.1035 29.25 32.1035 28.9219C32.1035 28.4953 32.1738 28.2984 32.4363 27.9891L32.5629 27.8391L32.441 27.7125C32.1926 27.4453 32.1035 27.1969 32.1035 26.7656C32.1035 26.4094 32.1176 26.3391 32.2441 26.1187C32.3754 25.875 32.3801 25.8656 32.291 25.8187C32.1035 25.7156 31.8082 25.3641 31.7238 25.1437C31.6816 25.0172 31.6395 24.9094 31.6301 24.9C31.6254 24.8906 31.5504 24.9281 31.466 24.9797C31.377 25.0359 31.2504 25.0781 31.1848 25.0781C30.9457 25.0781 30.7723 24.7406 30.9223 24.5531C30.9504 24.5109 31.1285 24.3891 31.3066 24.2812C32.0379 23.8406 32.202 23.6297 32.1551 23.2078C32.066 22.4156 32.066 22.2516 32.1738 21.975C32.2395 21.8016 32.3707 21.6 32.5488 21.3984C32.7035 21.2297 32.8441 21.0375 32.8629 20.9672C32.8863 20.8922 32.9004 20.3625 32.9004 19.7812C32.8957 18.8344 32.8863 18.6937 32.7926 18.3984C32.4926 17.4234 31.5176 16.6453 30.5941 16.6406H30.3926V17.7281Z" fill="white"/>
<path d="M33.3689 17.939C33.5423 18.3515 33.5892 18.6609 33.6126 19.6546L33.6407 20.6765L34.0392 19.7812L34.4376 18.8812L33.9267 18.3703C33.4345 17.8734 33.2985 17.7703 33.3689 17.939Z" fill="white"/>
<path d="M33.1207 21.8437C32.7926 22.0453 32.6848 22.4766 32.8817 22.8281C33.0739 23.1703 33.1067 23.1797 34.6254 23.1937C35.9239 23.2078 35.9848 23.2031 36.1817 23.1094C36.4489 22.9781 36.5801 22.7672 36.5801 22.4719C36.5801 22.2 36.4582 21.9797 36.2426 21.8437C36.0973 21.7547 36.0035 21.75 34.6817 21.75C33.3598 21.75 33.266 21.7547 33.1207 21.8437Z" fill="white"/>
<path d="M25.002 25.5V28.9219H26.1504H27.2988V25.5V22.0781H26.1504H25.002V25.5Z" fill="white"/>
<path d="M32.6895 23.9906C32.4551 24.1078 32.3051 24.3844 32.3286 24.6703C32.352 24.9516 32.4692 25.1156 32.7411 25.2562C32.9473 25.3641 32.952 25.3641 34.7614 25.35C36.5098 25.3359 36.5801 25.3312 36.702 25.2375C36.913 25.0828 37.0161 24.9094 37.0348 24.6703C37.0583 24.3937 36.9504 24.1641 36.7255 24.0141C36.5661 23.9062 36.5614 23.9062 34.7098 23.9062C33.0364 23.9062 32.8395 23.9156 32.6895 23.9906Z" fill="white"/>
<path d="M33.1207 26.1562C32.666 26.4328 32.6707 27.0562 33.1254 27.3937C33.2519 27.4875 33.3129 27.4922 34.5082 27.4922C35.6754 27.4922 35.7691 27.4875 35.9191 27.3984C36.3972 27.1172 36.4207 26.475 35.9707 26.1656C35.8207 26.0672 35.7879 26.0625 34.5457 26.0625C33.3597 26.0625 33.266 26.0672 33.1207 26.1562Z" fill="white"/>
<path d="M33.1207 28.3125C32.6707 28.5891 32.6707 29.2547 33.1207 29.5312C33.2613 29.6156 33.3598 29.625 34.2129 29.625C35.2582 29.625 35.3566 29.6016 35.5488 29.2875C35.7457 28.9641 35.6285 28.5094 35.3051 28.3125C35.1645 28.2281 35.066 28.2188 34.2129 28.2188C33.3598 28.2188 33.2613 28.2281 33.1207 28.3125Z" fill="white"/>
</g>
<defs>
<clipPath id="clip0_0_577">
<rect width="24" height="24" fill="white" transform="translate(13.9863 13.5)"/>
</clipPath>
</defs>
</svg>
