<svg width="40" height="40" viewBox="0 0 40 40" fill="none" xmlns="http://www.w3.org/2000/svg">
<circle cx="20" cy="20" r="19.5" transform="matrix(1 0 0 -1 0 40)" stroke="#62C9CC"/>
<path d="M16.9131 19.9852L17.2666 20.3387L24.6882 27.7603C24.8687 27.9486 24.9685 28.2 24.9662 28.4609C24.9639 28.7231 24.8588 28.9739 24.6734 29.1594C24.488 29.3448 24.2372 29.4499 23.975 29.4522C23.7141 29.4545 23.4627 29.3547 23.2744 29.1743L14.7923 20.6922C14.7923 20.6922 14.7923 20.6921 14.7922 20.6921C14.6048 20.5046 14.4995 20.2503 14.4995 19.9852C14.4995 19.72 14.6048 19.4658 14.7922 19.2782C14.7923 19.2782 14.7923 19.2782 14.7923 19.2782L23.2777 10.7928C23.4652 10.6053 23.7195 10.5 23.9847 10.5C24.2498 10.5 24.5041 10.6053 24.6916 10.7927C24.6916 10.7927 24.6917 10.7928 24.6917 10.7928M16.9131 19.9852L25.0452 12.5602C25.3264 12.2789 25.4844 11.8974 25.4844 11.4997C25.4844 11.1019 25.3264 10.7205 25.0452 10.4392L24.6917 10.7928M16.9131 19.9852L17.2666 19.6316L24.6916 12.2067M16.9131 19.9852L24.6916 12.2067M24.6917 10.7928C24.8791 10.9803 24.9844 11.2346 24.9844 11.4997C24.9844 11.7648 24.8791 12.0191 24.6916 12.2066C24.6916 12.2066 24.6916 12.2067 24.6916 12.2067M24.6917 10.7928L24.6916 12.2067" fill="#62C9CC" stroke="#62C9CC"/>
</svg>
