<svg width="40" height="40" viewBox="0 0 40 40" fill="none" xmlns="http://www.w3.org/2000/svg">
<circle cx="20" cy="20" r="19.5" fill="white" stroke="white"/>
<path d="M24.0608 29.5459C24.342 29.2646 24.5 28.8832 24.5 28.4854C24.5 28.0877 24.342 27.7062 24.0608 27.4249L16.6358 19.9999L24.0608 12.5749C24.3341 12.292 24.4852 11.9131 24.4818 11.5198C24.4784 11.1265 24.3207 10.7503 24.0425 10.4722C23.7644 10.1941 23.3882 10.0363 22.9949 10.0329C22.6016 10.0295 22.2227 10.1807 21.9398 10.4539L13.4543 18.9394C13.1731 19.2207 13.0151 19.6022 13.0151 19.9999C13.0151 20.3977 13.1731 20.7791 13.4543 21.0604L21.9398 29.5459C22.2211 29.8271 22.6026 29.9851 23.0003 29.9851C23.3981 29.9851 23.7795 29.8271 24.0608 29.5459Z" fill="#62C9CC"/>
</svg>
