<svg width="61" height="60" viewBox="0 0 61 60" fill="none" xmlns="http://www.w3.org/2000/svg">
<path d="M2.24023 1.17188C2.00586 1.40625 2.00586 1.55859 2.00586 30C2.00586 58.4414 2.00586 58.5938 2.24023 58.8281C2.47461 59.0625 2.62695 59.0625 25.9238 59.0625C40.7012 59.0625 49.4434 59.0156 49.5723 58.9453C49.6895 58.8867 49.8535 58.6758 49.9355 58.4766C50.1113 58.0664 49.9355 57.4922 49.5723 57.3047C49.4551 57.2344 48.623 57.1875 47.7207 57.1875H46.0684L46.0449 42.6797L46.0098 28.1836H42.9629H39.916L39.8809 42.6797L39.8574 57.1875H37.2793H34.7012L34.6777 45.5508L34.6426 33.9258L31.666 33.8906C29.3574 33.8672 28.666 33.9023 28.584 34.0078C28.5371 34.0898 28.4902 39.3398 28.4902 45.668V57.1875H25.9707H23.4512V48.832C23.4512 42.4922 23.416 40.4414 23.3105 40.3359C23.2051 40.2305 22.3965 40.1953 20.3926 40.1953C18.8574 40.1953 17.5332 40.2305 17.4277 40.2656C17.2637 40.3359 17.2402 41.1914 17.2402 48.7617V57.1875H14.6621H12.084L12.0605 51.8203L12.0254 46.4648H8.97852H5.93164L5.89648 51.832L5.87305 57.1875H4.87695H3.88086V29.2969C3.88086 1.55859 3.88086 1.40625 3.64648 1.17188C3.49414 1.01953 3.25977 0.9375 2.94336 0.9375C2.62695 0.9375 2.39258 1.01953 2.24023 1.17188Z" fill="white"/>
<path d="M41.7554 2.16794C38.0757 3.11716 35.228 5.95309 34.2085 9.70309C33.8452 11.0273 33.8452 13.6289 34.1968 14.9531C35.0171 17.9648 36.9976 20.4258 39.7046 21.7851C42.2007 23.0273 45.5054 23.1914 48.1538 22.1953C48.5757 22.0429 48.9273 21.9258 48.939 21.9375C48.9507 21.9609 49.4429 22.7812 50.0405 23.7773L51.107 25.5937L50.8491 25.8633C50.3335 26.414 50.4273 26.6601 52.7476 30.5273C53.9312 32.4961 55.0093 34.1953 55.1382 34.289C55.5484 34.5703 55.9116 34.4765 57.189 33.7383C59.064 32.6484 59.1929 32.5429 59.1929 31.9804C59.1929 31.5703 58.8765 30.9843 57.0601 27.9258C55.8999 25.9687 54.8101 24.2695 54.6577 24.1758C54.4702 24.0468 54.2476 24.0117 53.9312 24.0703L53.4859 24.1406L52.4077 22.3242C51.8218 21.3281 51.3413 20.4843 51.3413 20.4375C51.3413 20.3906 51.6577 20.0273 52.0327 19.6172C52.9351 18.6562 53.3687 18.0117 53.9312 16.8164C55.4195 13.6523 55.2437 9.97262 53.4741 6.97262C52.8179 5.84762 51.0249 3.99606 50.0288 3.42184C48.9859 2.81247 47.6148 2.26169 46.6304 2.06247C45.2241 1.7695 43.0913 1.81638 41.7554 2.16794ZM46.3023 5.28512C47.6382 5.64841 48.4702 6.15231 49.5366 7.207C51.0132 8.66012 51.7398 10.3711 51.7398 12.3633C51.7398 15.5273 49.7241 18.2461 46.5718 19.3476C45.6226 19.6758 44.0054 19.7578 42.9155 19.5234C40.3257 18.9726 38.1226 16.8867 37.3257 14.2383C36.9976 13.1367 37.0445 11.332 37.4312 10.125C38.6499 6.41012 42.5991 4.25387 46.3023 5.28512Z" fill="white"/>
<path d="M40.9476 10.0781C40.3969 10.3008 40.2562 11.2617 40.7133 11.6953C40.9359 11.9062 41.1469 11.9531 42.014 11.9766L43.057 12.0117L41.2875 13.4766C40.3148 14.2852 39.518 14.9766 39.518 15.0234C39.4945 15.1641 40.5844 16.5234 40.7015 16.5234C40.7719 16.5234 41.6039 15.8672 42.5531 15.0703L44.264 13.6289L44.0883 14.543C43.9242 15.4336 43.9242 15.4805 44.1586 15.7969C44.3461 16.043 44.5101 16.125 44.9086 16.1484C45.764 16.207 45.8461 16.0195 46.35 13.3477C46.5844 12.082 46.7719 10.9336 46.7719 10.793C46.7719 10.6523 46.643 10.4062 46.4789 10.2539L46.1976 9.96094L43.7015 9.97266C42.3305 9.97266 41.0883 10.0195 40.9476 10.0781Z" fill=""/>
<path d="M15.541 6.97266C15.1777 7.32422 15.1543 7.94531 15.4707 8.33203L15.6934 8.61328L23.5332 8.64844C27.834 8.66016 31.4785 8.64844 31.6308 8.61328C32.3574 8.4375 32.6152 7.51172 32.0644 6.97266L31.7832 6.67969H23.8027H15.8223L15.541 6.97266Z" fill=""/>
<path d="M7.24423 7.06645C7.05673 7.19536 7.04501 7.45317 7.06845 9.49224L7.10361 11.7774L9.37705 11.8125C10.9474 11.836 11.6974 11.8008 11.8028 11.7071C12.0606 11.4961 12.0372 7.35942 11.7794 7.10161C11.627 6.94927 11.252 6.91411 9.51767 6.91411C8.04111 6.91411 7.38486 6.96099 7.24423 7.06645Z" fill=""/>
<path d="M15.541 10.4883C15.1777 10.8398 15.1543 11.4609 15.4707 11.8477L15.6934 12.1289L23.5332 12.1641C27.834 12.1758 31.4785 12.1641 31.6308 12.1289C32.3574 11.9531 32.6152 11.0273 32.0644 10.4883L31.7832 10.1953H23.8027H15.8223L15.541 10.4883Z" fill=""/>
<path d="M15.541 16.3477C15.1777 16.6992 15.1543 17.3203 15.4707 17.707L15.6934 17.9883L23.5332 18.0234C27.834 18.0352 31.4785 18.0234 31.6308 17.9883C32.3574 17.8125 32.6152 16.8867 32.0644 16.3477L31.7832 16.0547H23.8027H15.8223L15.541 16.3477Z" fill=""/>
<path d="M7.09151 16.5586C7.06807 16.6407 7.05636 17.7071 7.06807 18.9258L7.10323 21.1524L9.37667 21.1875C10.947 21.211 11.697 21.1758 11.8024 21.0821C11.9314 20.9766 11.9665 20.4961 11.9665 18.8672C11.9665 17.7188 11.9314 16.6993 11.8962 16.5938C11.8376 16.4297 11.5095 16.4063 9.49385 16.4063C7.70089 16.4063 7.13839 16.4415 7.09151 16.5586Z" fill=""/>
<path d="M31.7484 20.6133C24.5062 25.5117 15.3538 30.1055 6.63508 33.2227C5.59211 33.5977 4.66633 33.9961 4.56086 34.125C4.03351 34.7227 4.49054 35.7422 5.26398 35.7422C5.63898 35.7422 8.36945 34.7695 11.4515 33.5391C17.0999 31.2773 22.8773 28.4297 28.0804 25.3359C30.9163 23.6484 35.3109 20.7188 35.2405 20.5547C35.1351 20.2734 34.1741 19.1016 34.057 19.1133C33.9984 19.125 32.9554 19.8047 31.7484 20.6133Z" fill=""/>
<path d="M15.541 19.8633C15.1777 20.2148 15.1543 20.8359 15.4707 21.2227L15.6934 21.5039L22.4551 21.5391L29.2051 21.5625L29.5566 21.2227C29.7441 21.0352 29.8965 20.7656 29.8965 20.625C29.8965 20.2852 29.5918 19.7344 29.3691 19.6406C29.2637 19.6055 26.1699 19.5703 22.5019 19.5703H15.8223L15.541 19.8633Z" fill=""/>
</svg>
