<svg width="58" height="60" viewBox="0 0 58 60" fill="none" xmlns="http://www.w3.org/2000/svg">
<path d="M0.240234 1.17188C0.00585938 1.40625 0.00585938 1.55859 0.00585938 30C0.00585938 58.4414 0.00585938 58.5938 0.240234 58.8281C0.474609 59.0625 0.626953 59.0625 23.9238 59.0625C38.7012 59.0625 47.4434 59.0156 47.5723 58.9453C47.6895 58.8867 47.8535 58.6758 47.9355 58.4766C48.1113 58.0664 47.9355 57.4922 47.5723 57.3047C47.4551 57.2344 46.623 57.1875 45.7207 57.1875H44.0684L44.0449 42.6797L44.0098 28.1836H40.9629H37.916L37.8809 42.6797L37.8574 57.1875H35.2793H32.7012L32.6777 45.5508L32.6426 33.9258L29.666 33.8906C27.3574 33.8672 26.666 33.9023 26.584 34.0078C26.5371 34.0898 26.4902 39.3398 26.4902 45.668V57.1875H23.9707H21.4512V48.832C21.4512 42.4922 21.416 40.4414 21.3105 40.3359C21.2051 40.2305 20.3965 40.1953 18.3926 40.1953C16.8574 40.1953 15.5332 40.2305 15.4277 40.2656C15.2637 40.3359 15.2402 41.1914 15.2402 48.7617V57.1875H12.6621H10.084L10.0605 51.8203L10.0254 46.4648H6.97852H3.93164L3.89648 51.832L3.87305 57.1875H2.87695H1.88086V29.2969C1.88086 1.55859 1.88086 1.40625 1.64648 1.17188C1.49414 1.01953 1.25977 0.9375 0.943359 0.9375C0.626953 0.9375 0.392578 1.01953 0.240234 1.17188Z" fill="#62C9CC"/>
<path d="M39.7554 2.16794C36.0757 3.11716 33.228 5.95309 32.2085 9.70309C31.8452 11.0273 31.8452 13.6289 32.1968 14.9531C33.0171 17.9648 34.9976 20.4258 37.7046 21.7851C40.2007 23.0273 43.5054 23.1914 46.1538 22.1953C46.5757 22.0429 46.9273 21.9258 46.939 21.9375C46.9507 21.9609 47.4429 22.7812 48.0405 23.7773L49.107 25.5937L48.8491 25.8633C48.3335 26.414 48.4273 26.6601 50.7476 30.5273C51.9312 32.4961 53.0093 34.1953 53.1382 34.289C53.5484 34.5703 53.9116 34.4765 55.189 33.7383C57.064 32.6484 57.1929 32.5429 57.1929 31.9804C57.1929 31.5703 56.8765 30.9843 55.0601 27.9258C53.8999 25.9687 52.8101 24.2695 52.6577 24.1758C52.4702 24.0468 52.2476 24.0117 51.9312 24.0703L51.4859 24.1406L50.4077 22.3242C49.8218 21.3281 49.3413 20.4843 49.3413 20.4375C49.3413 20.3906 49.6577 20.0273 50.0327 19.6172C50.9351 18.6562 51.3687 18.0117 51.9312 16.8164C53.4195 13.6523 53.2437 9.97262 51.4741 6.97262C50.8179 5.84762 49.0249 3.99606 48.0288 3.42184C46.9859 2.81247 45.6148 2.26169 44.6304 2.06247C43.2241 1.7695 41.0913 1.81638 39.7554 2.16794ZM44.3023 5.28512C45.6382 5.64841 46.4702 6.15231 47.5366 7.207C49.0132 8.66012 49.7398 10.3711 49.7398 12.3633C49.7398 15.5273 47.7241 18.2461 44.5718 19.3476C43.6226 19.6758 42.0054 19.7578 40.9155 19.5234C38.3257 18.9726 36.1226 16.8867 35.3257 14.2383C34.9976 13.1367 35.0445 11.332 35.4312 10.125C36.6499 6.41012 40.5991 4.25387 44.3023 5.28512Z" fill="#62C9CC"/>
<path d="M38.9476 10.0781C38.3969 10.3008 38.2562 11.2617 38.7133 11.6953C38.9359 11.9062 39.1469 11.9531 40.014 11.9766L41.057 12.0117L39.2875 13.4766C38.3148 14.2852 37.518 14.9766 37.518 15.0234C37.4945 15.1641 38.5844 16.5234 38.7015 16.5234C38.7719 16.5234 39.6039 15.8672 40.5531 15.0703L42.264 13.6289L42.0883 14.543C41.9242 15.4336 41.9242 15.4805 42.1586 15.7969C42.3461 16.043 42.5101 16.125 42.9086 16.1484C43.764 16.207 43.8461 16.0195 44.35 13.3477C44.5844 12.082 44.7719 10.9336 44.7719 10.793C44.7719 10.6523 44.643 10.4062 44.4789 10.2539L44.1976 9.96094L41.7015 9.97266C40.3305 9.97266 39.0883 10.0195 38.9476 10.0781Z" fill="#62C9CC"/>
<path d="M13.541 6.97266C13.1777 7.32422 13.1543 7.94531 13.4707 8.33203L13.6934 8.61328L21.5332 8.64844C25.834 8.66016 29.4785 8.64844 29.6308 8.61328C30.3574 8.4375 30.6152 7.51172 30.0644 6.97266L29.7832 6.67969H21.8027H13.8223L13.541 6.97266Z" fill="#62C9CC"/>
<path d="M5.24423 7.06645C5.05673 7.19536 5.04501 7.45317 5.06845 9.49224L5.10361 11.7774L7.37705 11.8125C8.94736 11.836 9.69736 11.8008 9.80283 11.7071C10.0606 11.4961 10.0372 7.35942 9.77939 7.10161C9.62705 6.94927 9.25205 6.91411 7.51767 6.91411C6.04111 6.91411 5.38486 6.96099 5.24423 7.06645Z" fill="#62C9CC"/>
<path d="M13.541 10.4883C13.1777 10.8398 13.1543 11.4609 13.4707 11.8477L13.6934 12.1289L21.5332 12.1641C25.834 12.1758 29.4785 12.1641 29.6308 12.1289C30.3574 11.9531 30.6152 11.0273 30.0644 10.4883L29.7832 10.1953H21.8027H13.8223L13.541 10.4883Z" fill="#62C9CC"/>
<path d="M13.541 16.3477C13.1777 16.6992 13.1543 17.3203 13.4707 17.707L13.6934 17.9883L21.5332 18.0234C25.834 18.0352 29.4785 18.0234 29.6308 17.9883C30.3574 17.8125 30.6152 16.8867 30.0644 16.3477L29.7832 16.0547H21.8027H13.8223L13.541 16.3477Z" fill="#62C9CC"/>
<path d="M5.09151 16.5586C5.06807 16.6407 5.05636 17.7071 5.06807 18.9258L5.10323 21.1524L7.37667 21.1875C8.94698 21.211 9.69698 21.1758 9.80245 21.0821C9.93135 20.9766 9.96651 20.4961 9.96651 18.8672C9.96651 17.7188 9.93135 16.6993 9.8962 16.5938C9.8376 16.4297 9.50948 16.4063 7.49385 16.4063C5.70089 16.4063 5.13839 16.4415 5.09151 16.5586Z" fill="#62C9CC"/>
<path d="M29.7484 20.6133C22.5062 25.5117 13.3538 30.1055 4.63508 33.2227C3.59211 33.5977 2.66633 33.9961 2.56086 34.125C2.03351 34.7227 2.49054 35.7422 3.26398 35.7422C3.63898 35.7422 6.36945 34.7695 9.45148 33.5391C15.0999 31.2773 20.8773 28.4297 26.0804 25.3359C28.9163 23.6484 33.3109 20.7188 33.2405 20.5547C33.1351 20.2734 32.1741 19.1016 32.057 19.1133C31.9984 19.125 30.9554 19.8047 29.7484 20.6133Z" fill="#62C9CC"/>
<path d="M13.541 19.8633C13.1777 20.2148 13.1543 20.8359 13.4707 21.2227L13.6934 21.5039L20.4551 21.5391L27.2051 21.5625L27.5566 21.2227C27.7441 21.0352 27.8965 20.7656 27.8965 20.625C27.8965 20.2852 27.5918 19.7344 27.3691 19.6406C27.2637 19.6055 24.1699 19.5703 20.5019 19.5703H13.8223L13.541 19.8633Z" fill="#62C9CC"/>
</svg>
