<svg width="16" height="16" viewBox="0 0 16 16" fill="none" xmlns="http://www.w3.org/2000/svg">
<path d="M12.6673 2.66683H11.334V2.00016C11.334 1.82335 11.2637 1.65378 11.1387 1.52876C11.0137 1.40373 10.8441 1.3335 10.6673 1.3335C10.4905 1.3335 10.3209 1.40373 10.1959 1.52876C10.0709 1.65378 10.0007 1.82335 10.0007 2.00016V2.66683H6.00065V2.00016C6.00065 1.82335 5.93041 1.65378 5.80539 1.52876C5.68036 1.40373 5.5108 1.3335 5.33398 1.3335C5.15717 1.3335 4.9876 1.40373 4.86258 1.52876C4.73756 1.65378 4.66732 1.82335 4.66732 2.00016V2.66683H3.33398C2.80355 2.66683 2.29484 2.87754 1.91977 3.25262C1.5447 3.62769 1.33398 4.1364 1.33398 4.66683V12.6668C1.33398 13.1973 1.5447 13.706 1.91977 14.081C2.29484 14.4561 2.80355 14.6668 3.33398 14.6668H12.6673C13.1978 14.6668 13.7065 14.4561 14.0815 14.081C14.4566 13.706 14.6673 13.1973 14.6673 12.6668V4.66683C14.6673 4.1364 14.4566 3.62769 14.0815 3.25262C13.7065 2.87754 13.1978 2.66683 12.6673 2.66683ZM13.334 12.6668C13.334 12.8436 13.2637 13.0132 13.1387 13.1382C13.0137 13.2633 12.8441 13.3335 12.6673 13.3335H3.33398C3.15717 13.3335 2.9876 13.2633 2.86258 13.1382C2.73756 13.0132 2.66732 12.8436 2.66732 12.6668V8.00016H13.334V12.6668ZM13.334 6.66683H2.66732V4.66683C2.66732 4.49002 2.73756 4.32045 2.86258 4.19543C2.9876 4.0704 3.15717 4.00016 3.33398 4.00016H4.66732V4.66683C4.66732 4.84364 4.73756 5.01321 4.86258 5.13823C4.9876 5.26326 5.15717 5.3335 5.33398 5.3335C5.5108 5.3335 5.68036 5.26326 5.80539 5.13823C5.93041 5.01321 6.00065 4.84364 6.00065 4.66683V4.00016H10.0007V4.66683C10.0007 4.84364 10.0709 5.01321 10.1959 5.13823C10.3209 5.26326 10.4905 5.3335 10.6673 5.3335C10.8441 5.3335 11.0137 5.26326 11.1387 5.13823C11.2637 5.01321 11.334 4.84364 11.334 4.66683V4.00016H12.6673C12.8441 4.00016 13.0137 4.0704 13.1387 4.19543C13.2637 4.32045 13.334 4.49002 13.334 4.66683V6.66683Z" fill="white"/>
</svg>
