<svg width="51" height="51" viewBox="0 0 51 51" fill="none" xmlns="http://www.w3.org/2000/svg">
<circle cx="25.4863" cy="25.5" r="25" fill="#62C9CC"/>
<path d="M24.0426 15.4203C22.8754 16.5875 22.627 16.8594 22.627 16.9672V17.0938H23.2363H23.8457V22.0391C23.8457 24.7578 23.8551 26.9844 23.8691 26.9844C23.8832 26.9844 23.977 26.9422 24.0801 26.8906C24.8488 26.4969 26.0113 26.4875 26.841 26.8672C26.977 26.9328 27.0988 26.9844 27.1082 26.9844C27.1176 26.9844 27.127 24.7578 27.127 22.0391V17.0938H27.7363H28.3457V16.9625C28.3457 16.8594 28.102 16.5922 26.9254 15.4156C26.1473 14.6375 25.5004 14 25.4863 14C25.4723 14 24.8254 14.6375 24.0426 15.4203Z" fill="white"/>
<path d="M16.4863 21.5375C16.4863 23.5016 16.4863 23.5484 16.5801 23.6328C16.6785 23.7219 16.6832 23.7172 17.1098 23.2906L17.541 22.8594L20.0113 25.3297L22.4863 27.8047V25.5078V23.2109L21.1645 21.8891L19.8379 20.5625L20.2738 20.1266C20.9066 19.4937 21.0191 19.5312 18.5113 19.5312H16.4863V21.5375Z" fill="white"/>
<path d="M30.3473 19.6109C30.2723 19.6906 30.291 19.7141 30.6988 20.1266L31.1348 20.5625L29.8082 21.8891L28.4863 23.2109V25.5078V27.8047L30.9613 25.3297L33.4316 22.8594L33.8629 23.2906C34.2895 23.7172 34.2941 23.7219 34.3926 23.6328C34.4863 23.5484 34.4863 23.5016 34.4863 21.5375V19.5312H32.4566C30.6004 19.5312 30.4223 19.5359 30.3473 19.6109Z" fill="white"/>
<path d="M25.0316 27.9922C23.4895 28.3297 22.8988 30.2469 23.977 31.4047C24.0988 31.5312 24.3051 31.6953 24.4316 31.7703L24.666 31.9062H21.5395H18.4082V33.4484V34.9906L18.727 35.0609C18.9004 35.0984 19.702 35.2766 20.5082 35.45L21.9707 35.7687V36.8844V38H25.4863H29.002V36.8844V35.7687L30.3754 35.4734C31.1254 35.3094 31.927 35.1359 32.1566 35.0844L32.5645 34.9906V33.4484V31.9062H29.4379H26.3066L26.541 31.7703C27.4457 31.2547 27.802 30.0781 27.3473 29.1266C27.066 28.5266 26.5598 28.1281 25.9223 27.9922C25.5379 27.9078 25.4113 27.9078 25.0316 27.9922Z" fill="white"/>
<path d="M16.1206 31.9578C14.9628 32.1828 14.5221 33.6219 15.3378 34.5219C15.619 34.8406 15.9471 34.9672 16.5471 34.9906L17.0487 35.0141V33.4578V31.9063L16.6878 31.9109C16.4862 31.9156 16.2331 31.9344 16.1206 31.9578Z" fill="white"/>
<path d="M33.9238 33.4531V35.0141L34.4301 34.9906C35.0254 34.9672 35.3535 34.8406 35.6348 34.5219C35.9207 34.2125 36.052 33.8703 36.052 33.4484C36.052 33.1391 36.0285 33.0453 35.902 32.7828C35.616 32.2063 35.1895 31.9578 34.4113 31.9156L33.9238 31.8922V33.4531Z" fill="white"/>
</svg>
